<svg width="159" height="44" viewBox="0 0 159 44" fill="none" xmlns="http://www.w3.org/2000/svg">
<path fill-rule="evenodd" clip-rule="evenodd" d="M9.40801 3.95765C7.83428 5.05805 6.41121 6.35908 5.17586 7.82364C10.2241 7.35496 16.6377 8.12025 24.0838 11.8434C32.0353 15.819 38.4382 15.9534 42.8943 15.0939C42.4899 13.8697 41.9808 12.6931 41.3779 11.5746C36.2769 12.1126 29.7374 11.4005 22.1161 7.58998C17.2766 5.1702 13.0105 4.17341 9.40801 3.95765ZM38.3981 7.33331C34.3698 2.8325 28.5157 0 22 0C20.0865 0 18.2299 0.244318 16.46 0.703428C18.8572 1.35749 21.4037 2.31439 24.0838 3.65449C29.6637 6.44438 34.481 7.34268 38.3981 7.33331ZM43.847 19.3909C38.4636 20.4539 31.0297 20.2356 22.1161 15.7788C13.783 11.6122 7.15048 11.6647 2.67729 12.6588C2.4464 12.71 2.22095 12.7639 2.00093 12.82C1.41528 14.0937 0.947798 15.4331 0.612373 16.8239C0.970625 16.7282 1.34082 16.6373 1.72278 16.5523C7.14953 15.3464 14.8171 15.3988 24.0838 20.0322C32.4171 24.1988 39.0495 24.1463 43.5228 23.1522C43.676 23.1182 43.8271 23.083 43.9756 23.0467C43.9918 22.6999 44 22.3509 44 22C44 21.1172 43.9481 20.2466 43.847 19.3909ZM43.2573 27.6895C37.9261 28.6216 30.7087 28.2638 22.1161 23.9677C13.783 19.8011 7.15048 19.8536 2.67729 20.8476C1.68438 21.0682 0.791163 21.3369 0.003223 21.6206C0.0010747 21.7468 0 21.8733 0 22C0 34.1503 9.84973 44 22 44C32.1828 44 40.7498 37.082 43.2573 27.6895Z" fill="#1F1F1F"/>
<path d="M67.1099 32.9935C65.8603 32.9935 64.6987 32.7647 63.6251 32.3071C62.5691 31.8495 61.6539 31.2159 60.8795 30.4063C60.1227 29.5791 59.5683 28.6199 59.2163 27.5287L62.1995 26.2351C62.6747 27.3615 63.3611 28.2503 64.2587 28.9015C65.1563 29.5351 66.1683 29.8519 67.2947 29.8519C67.9283 29.8519 68.4739 29.7551 68.9315 29.5615C69.4067 29.3503 69.7675 29.0687 70.0139 28.7167C70.2779 28.3647 70.4099 27.9423 70.4099 27.4495C70.4099 26.8687 70.2339 26.3935 69.8819 26.0239C69.5475 25.6367 69.0371 25.3375 68.3507 25.1263L64.5755 23.9119C63.0443 23.4367 61.8915 22.7239 61.1171 21.7735C60.3427 20.8231 59.9555 19.7055 59.9555 18.4207C59.9555 17.2943 60.2283 16.2999 60.7739 15.4375C61.3371 14.5751 62.1115 13.9063 63.0971 13.4311C64.1003 12.9383 65.2443 12.6919 66.5291 12.6919C67.7083 12.6919 68.7907 12.9031 69.7763 13.3255C70.7619 13.7303 71.6067 14.3023 72.3107 15.0415C73.0323 15.7631 73.5691 16.6167 73.9211 17.6023L70.9643 18.9223C70.5771 17.9367 69.9963 17.1799 69.2219 16.6519C68.4475 16.1063 67.5499 15.8335 66.5291 15.8335C65.9307 15.8335 65.4027 15.9391 64.9451 16.1503C64.4875 16.3439 64.1267 16.6255 63.8627 16.9951C63.6163 17.3471 63.4931 17.7695 63.4931 18.2623C63.4931 18.8079 63.6691 19.2919 64.0211 19.7143C64.3731 20.1191 64.9099 20.4359 65.6315 20.6647L69.2483 21.7999C70.8147 22.3103 71.9851 23.0143 72.7595 23.9119C73.5515 24.8095 73.9475 25.9183 73.9475 27.2383C73.9475 28.3647 73.6571 29.3591 73.0763 30.2215C72.4955 31.0839 71.6947 31.7615 70.6739 32.2543C69.6531 32.7471 68.4651 32.9935 67.1099 32.9935Z" fill="#1F1F1F"/>
<path d="M76.8901 32.6767V12.6919H80.3485V21.1399L79.8733 20.6383C80.2077 19.7759 80.7533 19.1247 81.5101 18.6847C82.2845 18.2271 83.1821 17.9983 84.2029 17.9983C85.2589 17.9983 86.1917 18.2271 87.0013 18.6847C87.8285 19.1423 88.4709 19.7847 88.9285 20.6119C89.3861 21.4215 89.6149 22.3631 89.6149 23.4367V32.6767H86.1565V24.2551C86.1565 23.6215 86.0333 23.0759 85.7869 22.6183C85.5405 22.1607 85.1973 21.8087 84.7573 21.5623C84.3349 21.2983 83.8333 21.1663 83.2525 21.1663C82.6893 21.1663 82.1877 21.2983 81.7477 21.5623C81.3077 21.8087 80.9645 22.1607 80.7181 22.6183C80.4717 23.0759 80.3485 23.6215 80.3485 24.2551V32.6767H76.8901Z" fill="#1F1F1F"/>
<path d="M96.8953 32.9935C95.8921 32.9935 95.0209 32.8263 94.2817 32.4919C93.5425 32.1575 92.9705 31.6823 92.5657 31.0663C92.1609 30.4327 91.9585 29.7023 91.9585 28.8751C91.9585 28.0831 92.1345 27.3791 92.4865 26.7631C92.8385 26.1295 93.3841 25.6015 94.1233 25.1791C94.8625 24.7567 95.7953 24.4575 96.9217 24.2815L101.621 23.5159V26.1559L97.5817 26.8423C96.8953 26.9655 96.3849 27.1855 96.0505 27.5023C95.7161 27.8191 95.5489 28.2327 95.5489 28.7431C95.5489 29.2359 95.7337 29.6319 96.1033 29.9311C96.4905 30.2127 96.9657 30.3535 97.5289 30.3535C98.2505 30.3535 98.8841 30.2039 99.4297 29.9047C99.9929 29.5879 100.424 29.1567 100.723 28.6111C101.04 28.0655 101.199 27.4671 101.199 26.8159V23.1199C101.199 22.5039 100.952 21.9935 100.459 21.5887C99.9841 21.1663 99.3505 20.9551 98.5585 20.9551C97.8193 20.9551 97.1593 21.1575 96.5785 21.5623C96.0153 21.9495 95.6017 22.4687 95.3377 23.1199L92.5129 21.7471C92.7945 20.9903 93.2345 20.3391 93.8329 19.7935C94.4489 19.2303 95.1705 18.7903 95.9977 18.4735C96.8249 18.1567 97.7225 17.9983 98.6905 17.9983C99.8697 17.9983 100.908 18.2183 101.806 18.6583C102.703 19.0807 103.399 19.6791 103.891 20.4535C104.402 21.2103 104.657 22.0991 104.657 23.1199V32.6767H101.383V30.2215L102.123 30.1687C101.753 30.7847 101.313 31.3039 100.803 31.7263C100.292 32.1311 99.7113 32.4479 99.0601 32.6767C98.4089 32.8879 97.6873 32.9935 96.8953 32.9935Z" fill="#1F1F1F"/>
<path d="M107.853 32.6767V18.3151H111.101V21.1399L110.837 20.6383C111.171 19.7759 111.717 19.1247 112.473 18.6847C113.248 18.2271 114.145 17.9983 115.166 17.9983C116.222 17.9983 117.155 18.2271 117.965 18.6847C118.792 19.1423 119.434 19.7847 119.892 20.6119C120.349 21.4215 120.578 22.3631 120.578 23.4367V32.6767H117.12V24.2551C117.12 23.6215 116.997 23.0759 116.75 22.6183C116.504 22.1607 116.161 21.8087 115.721 21.5623C115.298 21.2983 114.797 21.1663 114.216 21.1663C113.653 21.1663 113.151 21.2983 112.711 21.5623C112.271 21.8087 111.928 22.1607 111.681 22.6183C111.435 23.0759 111.312 23.6215 111.312 24.2551V32.6767H107.853Z" fill="#1F1F1F"/>
<path d="M130.472 38.4847C129.399 38.4847 128.404 38.3087 127.489 37.9567C126.574 37.6047 125.782 37.1119 125.113 36.4783C124.462 35.8623 123.987 35.1319 123.687 34.2871L126.908 33.0727C127.119 33.7415 127.533 34.2783 128.149 34.6831C128.783 35.1055 129.557 35.3167 130.472 35.3167C131.176 35.3167 131.792 35.1847 132.32 34.9207C132.866 34.6567 133.288 34.2695 133.587 33.7591C133.887 33.2663 134.036 32.6679 134.036 31.9639V28.6903L134.696 29.4823C134.203 30.3447 133.543 30.9959 132.716 31.4359C131.889 31.8759 130.947 32.0959 129.891 32.0959C128.554 32.0959 127.357 31.7879 126.301 31.1719C125.245 30.5559 124.418 29.7111 123.819 28.6375C123.221 27.5639 122.922 26.3583 122.922 25.0207C122.922 23.6655 123.221 22.4599 123.819 21.4039C124.418 20.3479 125.236 19.5207 126.275 18.9223C127.313 18.3063 128.492 17.9983 129.812 17.9983C130.886 17.9983 131.827 18.2271 132.637 18.6847C133.464 19.1247 134.151 19.7671 134.696 20.6119L134.221 21.4831V18.3151H137.495V31.9639C137.495 33.2135 137.187 34.3311 136.571 35.3167C135.972 36.3023 135.145 37.0767 134.089 37.6399C133.051 38.2031 131.845 38.4847 130.472 38.4847ZM130.314 28.9015C131.053 28.9015 131.695 28.7431 132.241 28.4263C132.804 28.0919 133.244 27.6343 133.561 27.0535C133.878 26.4727 134.036 25.8039 134.036 25.0471C134.036 24.3079 133.869 23.6479 133.535 23.0671C133.218 22.4687 132.778 22.0023 132.215 21.6679C131.669 21.3335 131.035 21.1663 130.314 21.1663C129.592 21.1663 128.941 21.3335 128.36 21.6679C127.779 22.0023 127.322 22.4687 126.987 23.0671C126.671 23.6479 126.512 24.3079 126.512 25.0471C126.512 25.7863 126.671 26.4463 126.987 27.0271C127.322 27.6079 127.771 28.0655 128.334 28.3999C128.915 28.7343 129.575 28.9015 130.314 28.9015Z" fill="#1F1F1F"/>
<path d="M139.431 32.6767L144.447 25.4695L139.405 18.3151H143.47L147.404 24.1231H145.582L149.516 18.3151H153.555L148.539 25.4695L153.529 32.6767H149.489L145.609 26.8951H147.377L143.497 32.6767H139.431Z" fill="#1F1F1F"/>
<path d="M155.446 32.6767V18.3151H158.904V32.6767H155.446ZM155.446 16.7047V13.0087H158.904V16.7047H155.446Z" fill="#1F1F1F"/>
</svg>
