<svg width="139" height="32" viewBox="0 0 139 32" fill="none" xmlns="http://www.w3.org/2000/svg">
<path d="M14.9727 4.65753V0H0.287781V32H14.9727V27.3425C11.9645 27.3425 9.07945 26.1474 6.95237 24.0203C4.82525 21.8932 3.63024 19.0082 3.63024 16C3.63024 12.9918 4.82525 10.1067 6.95237 7.97967C9.07945 5.85255 11.9645 4.65753 14.9727 4.65753Z" fill="#1F1F1F"/>
<path d="M14.9709 4.65759V27.3425C17.9791 27.3425 20.8641 26.1475 22.9913 24.0203C25.1184 21.8932 26.3133 19.0083 26.3133 16.0001C26.3133 12.9918 25.1184 10.1068 22.9913 7.97973C20.8641 5.85261 17.9791 4.65759 14.9709 4.65759Z" fill="#1F1F1F"/>
<path d="M136.342 11.3308C137.673 11.3308 138.753 10.2514 138.753 8.91987C138.753 7.58836 137.673 6.50891 136.342 6.50891C135.01 6.50891 133.931 7.58836 133.931 8.91987C133.931 10.2514 135.01 11.3308 136.342 11.3308Z" fill="#1F1F1F"/>
<path d="M41.5208 20.8626L45.9257 6.06808H50.2151L43.704 24.7667H40.8786L41.5208 20.8626ZM37.4625 6.06808L41.8547 20.8626L42.5225 24.7667H39.6714L33.1988 6.06808H37.4625Z" fill="#1F1F1F"/>
<path d="M58.6398 21.6331V15.4431C58.6398 14.9979 58.567 14.6169 58.4214 14.3001C58.2759 13.9748 58.049 13.7222 57.7408 13.5424C57.4411 13.3626 57.0516 13.2727 56.5721 13.2727C56.1612 13.2727 55.8059 13.3455 55.5062 13.491C55.2065 13.628 54.9754 13.8292 54.8127 14.0946C54.65 14.3515 54.5687 14.6554 54.5687 15.0064H50.8701C50.8701 14.4157 51.0071 13.8549 51.281 13.3241C51.555 12.7933 51.9531 12.3266 52.4754 11.9242C52.9976 11.5133 53.6184 11.1922 54.3375 10.9611C55.0653 10.7299 55.8786 10.6143 56.7776 10.6143C57.8564 10.6143 58.8153 10.7941 59.6543 11.1537C60.4934 11.5133 61.1526 12.0527 61.632 12.7718C62.1201 13.491 62.3641 14.39 62.3641 15.4688V21.4148C62.3641 22.1768 62.4112 22.8018 62.5053 23.2898C62.5995 23.7693 62.7365 24.1888 62.9163 24.5484V24.7667H59.1791C58.9993 24.39 58.8624 23.9191 58.7682 23.354C58.6826 22.7804 58.6398 22.2068 58.6398 21.6331ZM59.1278 16.3035L59.1535 18.3968H57.0858C56.5978 18.3968 56.174 18.4525 55.8144 18.5638C55.4548 18.6751 55.1594 18.8335 54.9283 19.039C54.6971 19.2359 54.5259 19.4671 54.4146 19.7325C54.3118 19.9979 54.2605 20.289 54.2605 20.6057C54.2605 20.9225 54.3333 21.2093 54.4788 21.4662C54.6243 21.7145 54.8341 21.9114 55.1081 22.0569C55.3821 22.1939 55.7031 22.2624 56.0713 22.2624C56.6278 22.2624 57.1115 22.1511 57.5225 21.9285C57.9334 21.7059 58.2502 21.4319 58.4728 21.1066C58.704 20.7813 58.8238 20.473 58.8324 20.1819L59.8084 21.7487C59.6714 22.0998 59.4831 22.4636 59.2434 22.8403C59.0122 23.217 58.7168 23.5724 58.3572 23.9063C57.9976 24.2316 57.5653 24.5013 57.0601 24.7153C56.555 24.9208 55.9557 25.0236 55.2622 25.0236C54.3803 25.0236 53.5798 24.848 52.8606 24.497C52.15 24.1374 51.585 23.6451 51.1654 23.0201C50.7545 22.3866 50.549 21.6674 50.549 20.8626C50.549 20.1349 50.686 19.4885 50.96 18.9234C51.2339 18.3583 51.6363 17.8831 52.1672 17.4979C52.7065 17.104 53.3786 16.8087 54.1834 16.6117C54.9882 16.4063 55.9214 16.3035 56.9831 16.3035H59.1278Z" fill="#1F1F1F"/>
<path d="M68.8367 13.8378V24.7667H65.138V10.8712H68.6055L68.8367 13.8378ZM68.2973 17.3309H67.2956C67.2956 16.3035 67.4283 15.3789 67.6937 14.557C67.9591 13.7265 68.3315 13.0201 68.811 12.4379C69.2904 11.8472 69.8598 11.3977 70.519 11.0895C71.1868 10.7727 71.9317 10.6143 72.7536 10.6143C73.4043 10.6143 73.9993 10.7085 74.5387 10.8968C75.0781 11.0852 75.5404 11.3849 75.9257 11.7958C76.3195 12.2068 76.6192 12.7504 76.8247 13.4268C77.0387 14.1032 77.1457 14.9294 77.1457 15.9054V24.7667H73.4214V15.8926C73.4214 15.2761 73.3358 14.7967 73.1646 14.4542C72.9933 14.1117 72.7408 13.872 72.4069 13.735C72.0815 13.5895 71.6791 13.5167 71.1997 13.5167C70.7031 13.5167 70.2707 13.6152 69.9026 13.8121C69.543 14.009 69.2434 14.283 69.0036 14.634C68.7725 14.9765 68.5969 15.3789 68.4771 15.8412C68.3572 16.3035 68.2973 16.8001 68.2973 17.3309Z" fill="#1F1F1F"/>
<path d="M84.6714 24.7667H80.9471V9.63829C80.9471 8.58521 81.1526 7.69908 81.5636 6.9799C81.9831 6.25216 82.5695 5.70421 83.323 5.33606C84.085 4.95935 84.9882 4.771 86.0327 4.771C86.3752 4.771 86.7048 4.79668 87.0216 4.84805C87.3384 4.89086 87.6466 4.94651 87.9463 5.015L87.9077 7.80182C87.7451 7.75901 87.5738 7.72904 87.394 7.71192C87.2142 7.6948 87.0045 7.68623 86.7648 7.68623C86.3195 7.68623 85.9386 7.76329 85.6218 7.9174C85.3136 8.06295 85.0781 8.28127 84.9154 8.57236C84.7528 8.86346 84.6714 9.21877 84.6714 9.63829V24.7667ZM87.4454 10.8712V13.491H78.8795V10.8712H87.4454Z" fill="#1F1F1F"/>
<path d="M96.8846 21.6331V15.4431C96.8846 14.9979 96.8118 14.6169 96.6663 14.3001C96.5207 13.9748 96.2939 13.7222 95.9856 13.5424C95.686 13.3626 95.2964 13.2727 94.817 13.2727C94.406 13.2727 94.0507 13.3455 93.751 13.491C93.4514 13.628 93.2202 13.8292 93.0576 14.0946C92.8949 14.3515 92.8135 14.6554 92.8135 15.0064H89.1149C89.1149 14.4157 89.2519 13.8549 89.5259 13.3241C89.7999 12.7933 90.198 12.3266 90.7202 11.9242C91.2425 11.5133 91.8632 11.1922 92.5824 10.9611C93.3101 10.7299 94.1235 10.6143 95.0225 10.6143C96.1012 10.6143 97.0601 10.7941 97.8992 11.1537C98.7382 11.5133 99.3975 12.0527 99.8769 12.7718C100.365 13.491 100.609 14.39 100.609 15.4688V21.4148C100.609 22.1768 100.656 22.8018 100.75 23.2898C100.844 23.7693 100.981 24.1888 101.161 24.5484V24.7667H97.424C97.2442 24.39 97.1072 23.9191 97.013 23.354C96.9274 22.7804 96.8846 22.2068 96.8846 21.6331ZM97.3726 16.3035L97.3983 18.3968H95.3307C94.8427 18.3968 94.4189 18.4525 94.0593 18.5638C93.6997 18.6751 93.4043 18.8335 93.1731 19.039C92.942 19.2359 92.7707 19.4671 92.6594 19.7325C92.5567 19.9979 92.5053 20.289 92.5053 20.6057C92.5053 20.9225 92.5781 21.2093 92.7237 21.4662C92.8692 21.7145 93.079 21.9114 93.3529 22.0569C93.6269 22.1939 93.948 22.2624 94.3161 22.2624C94.8726 22.2624 95.3564 22.1511 95.7673 21.9285C96.1783 21.7059 96.4951 21.4319 96.7177 21.1066C96.9488 20.7813 97.0687 20.473 97.0772 20.1819L98.0533 21.7487C97.9163 22.0998 97.7279 22.4636 97.4882 22.8403C97.257 23.217 96.9617 23.5724 96.6021 23.9063C96.2425 24.2316 95.8101 24.5013 95.305 24.7153C94.7999 24.9208 94.2005 25.0236 93.507 25.0236C92.6252 25.0236 91.8247 24.848 91.1055 24.497C90.3949 24.1374 89.8298 23.6451 89.4103 23.0201C88.9993 22.3866 88.7939 21.6674 88.7939 20.8626C88.7939 20.1349 88.9308 19.4885 89.2048 18.9234C89.4788 18.3583 89.8812 17.8831 90.412 17.4979C90.9514 17.104 91.6235 16.8087 92.4283 16.6117C93.2331 16.4063 94.1663 16.3035 95.2279 16.3035H97.3726Z" fill="#1F1F1F"/>
<path d="M103.46 5.04069H107.159V21.5818L106.786 24.7667H103.46V5.04069ZM115.956 17.6777V17.9474C115.956 18.9833 115.844 19.9337 115.622 20.7984C115.408 21.6631 115.074 22.4123 114.62 23.0458C114.166 23.6708 113.601 24.1588 112.925 24.5099C112.257 24.8523 111.469 25.0236 110.562 25.0236C109.714 25.0236 108.978 24.8523 108.353 24.5099C107.736 24.1674 107.219 23.6837 106.799 23.0587C106.379 22.4337 106.041 21.7016 105.784 20.8626C105.528 20.0236 105.335 19.1075 105.207 18.1143V17.5236C105.335 16.5304 105.528 15.6143 105.784 14.7753C106.041 13.9362 106.379 13.2042 106.799 12.5792C107.219 11.9542 107.736 11.4705 108.353 11.128C108.969 10.7855 109.697 10.6143 110.536 10.6143C111.452 10.6143 112.248 10.7898 112.925 11.1409C113.61 11.4833 114.175 11.9713 114.62 12.6049C115.074 13.2299 115.408 13.9748 115.622 14.8395C115.844 15.6956 115.956 16.6417 115.956 17.6777ZM112.257 17.9474V17.6777C112.257 17.1126 112.214 16.5818 112.129 16.0852C112.052 15.5801 111.915 15.1391 111.718 14.7624C111.521 14.3772 111.251 14.0732 110.909 13.8506C110.575 13.628 110.142 13.5167 109.611 13.5167C109.106 13.5167 108.678 13.6023 108.327 13.7736C107.976 13.9448 107.685 14.1845 107.454 14.4927C107.231 14.801 107.064 15.1691 106.953 15.5972C106.842 16.0167 106.773 16.479 106.748 16.9842V18.6665C106.773 19.3429 106.885 19.9422 107.082 20.4645C107.287 20.9782 107.595 21.3849 108.006 21.6845C108.426 21.9756 108.969 22.1212 109.637 22.1212C110.159 22.1212 110.592 22.0184 110.934 21.8129C111.277 21.6075 111.542 21.3164 111.73 20.9397C111.927 20.5629 112.064 20.122 112.141 19.6169C112.219 19.1032 112.257 18.5467 112.257 17.9474Z" fill="#1F1F1F"/>
<path d="M125.754 21.6331V15.4431C125.754 14.9979 125.682 14.6169 125.536 14.3001C125.391 13.9748 125.164 13.7222 124.855 13.5424C124.556 13.3626 124.166 13.2727 123.687 13.2727C123.276 13.2727 122.921 13.3455 122.621 13.491C122.321 13.628 122.09 13.8292 121.927 14.0946C121.765 14.3515 121.683 14.6554 121.683 15.0064H117.985C117.985 14.4157 118.122 13.8549 118.396 13.3241C118.67 12.7933 119.068 12.3266 119.59 11.9242C120.112 11.5133 120.733 11.1922 121.452 10.9611C122.18 10.7299 122.993 10.6143 123.892 10.6143C124.971 10.6143 125.93 10.7941 126.769 11.1537C127.608 11.5133 128.267 12.0527 128.747 12.7718C129.235 13.491 129.479 14.39 129.479 15.4688V21.4148C129.479 22.1768 129.526 22.8018 129.62 23.2898C129.714 23.7693 129.851 24.1888 130.031 24.5484V24.7667H126.294C126.114 24.39 125.977 23.9191 125.883 23.354C125.797 22.7804 125.754 22.2068 125.754 21.6331ZM126.242 16.3035L126.268 18.3968H124.201C123.713 18.3968 123.289 18.4525 122.929 18.5638C122.57 18.6751 122.274 18.8335 122.043 19.039C121.812 19.2359 121.641 19.4671 121.529 19.7325C121.427 19.9979 121.375 20.289 121.375 20.6057C121.375 20.9225 121.448 21.2093 121.594 21.4662C121.739 21.7145 121.949 21.9114 122.223 22.0569C122.497 22.1939 122.818 22.2624 123.186 22.2624C123.742 22.2624 124.226 22.1511 124.637 21.9285C125.048 21.7059 125.365 21.4319 125.588 21.1066C125.819 20.7813 125.939 20.473 125.947 20.1819L126.923 21.7487C126.786 22.0998 126.598 22.4636 126.358 22.8403C126.127 23.217 125.832 23.5724 125.472 23.9063C125.112 24.2316 124.68 24.5013 124.175 24.7153C123.67 24.9208 123.07 25.0236 122.377 25.0236C121.495 25.0236 120.695 24.848 119.975 24.497C119.265 24.1374 118.7 23.6451 118.28 23.0201C117.869 22.3866 117.664 21.6674 117.664 20.8626C117.664 20.1349 117.801 19.4885 118.075 18.9234C118.349 18.3583 118.751 17.8831 119.282 17.4979C119.821 17.104 120.493 16.8087 121.298 16.6117C122.103 16.4063 123.036 16.3035 124.098 16.3035H126.242Z" fill="#1F1F1F"/>
</svg>
