<svg width="157" height="34" viewBox="0 0 157 34" fill="none" xmlns="http://www.w3.org/2000/svg">
<path d="M0.147156 30.4465C5.7169 30.4465 10.232 25.9313 10.232 20.3617C10.232 14.7919 5.7169 10.2767 0.147156 10.2767V17.3361C1.81806 17.3361 3.1726 18.6907 3.1726 20.3617C3.1726 22.0325 1.81806 23.3871 0.147156 23.3871V30.4465Z" fill="#1F1F1F"/>
<path d="M33.7634 13.6385C32.0401 13.0925 30.2049 12.798 28.3007 12.798C18.3216 12.798 10.2321 20.8877 10.2321 30.8667C10.2321 31.8683 10.3136 32.8509 10.4703 33.8082H21.6969C21.2962 32.9097 21.0734 31.9142 21.0734 30.8667C21.0734 26.8751 24.3091 23.6392 28.3007 23.6392C30.4824 23.6392 32.4382 24.6058 33.7634 26.1341V13.6385Z" fill="#1F1F1F"/>
<path d="M1.92023 0.191895C2.75633 7.75547 9.16879 13.6384 16.9552 13.6384C24.7416 13.6384 31.1541 7.75547 31.9902 0.191895H21.1719C20.504 1.86617 18.8677 3.04927 16.9552 3.04927C15.0426 3.04927 13.4064 1.86617 12.7384 0.191895H1.92023Z" fill="#1F1F1F"/>
<path d="M45.4628 7.02285H51.094C52.6169 7.02285 53.7857 7.14238 54.6003 7.38145C55.4237 7.62051 56.0391 7.96582 56.4464 8.41738C56.8625 8.86895 57.1414 9.4179 57.2831 10.0643C57.4336 10.7018 57.5089 11.6934 57.5089 13.0393V14.9119C57.5089 16.2843 57.3672 17.2848 57.0839 17.9135C56.8005 18.5421 56.2781 19.0247 55.5167 19.3611C54.7641 19.6976 53.7768 19.8658 52.555 19.8658H51.0542V28.5252H45.4628V7.02285ZM51.0542 10.7018V16.1736C51.2135 16.1825 51.3508 16.1869 51.4659 16.1869C51.9794 16.1869 52.3336 16.063 52.5284 15.815C52.732 15.5583 52.8339 15.0314 52.8339 14.2346V12.4682C52.8339 11.7333 52.7188 11.2551 52.4885 11.0338C52.2583 10.8124 51.7802 10.7018 51.0542 10.7018Z" fill="#1F1F1F"/>
<path d="M68.0807 7.02285L71.2815 28.5252H65.5573L65.2784 24.6604H63.2729L62.9409 28.5252H57.1503L59.9925 7.02285H68.0807ZM65.119 20.8486C64.8357 18.4137 64.5524 15.4077 64.269 11.8307C63.7024 15.939 63.3482 18.945 63.2065 20.8486H65.119Z" fill="#1F1F1F"/>
<path d="M84.7221 7.02285V28.5252H79.8214L76.9128 18.7502V28.5252H72.2378V7.02285H76.9128L80.0471 16.7049V7.02285H84.7221Z" fill="#1F1F1F"/>
<path d="M96.6354 7.02285L99.8362 28.5252H94.112L93.8331 24.6604H91.8276L91.4956 28.5252H85.705L88.5471 7.02285H96.6354ZM93.6737 20.8486C93.3904 18.4137 93.107 15.4077 92.8237 11.8307C92.257 15.939 91.9029 18.945 91.7612 20.8486H93.6737Z" fill="#1F1F1F"/>
<path d="M100.792 7.02285H104.976C107.677 7.02285 109.501 7.14681 110.448 7.39473C111.404 7.64264 112.13 8.04993 112.626 8.6166C113.122 9.18327 113.432 9.81634 113.556 10.5158C113.68 11.2064 113.742 12.57 113.742 14.6064V22.1369C113.742 24.0671 113.649 25.3598 113.463 26.015C113.286 26.6614 112.971 27.1705 112.52 27.5424C112.068 27.9054 111.51 28.1622 110.846 28.3127C110.182 28.4544 109.182 28.5252 107.845 28.5252H100.792V7.02285ZM106.384 10.7018V24.8463C107.19 24.8463 107.685 24.6869 107.871 24.3682C108.057 24.0406 108.15 23.1596 108.15 21.7252V13.3713C108.15 12.3973 108.119 11.7731 108.057 11.4986C107.995 11.2242 107.854 11.0249 107.632 10.901C107.411 10.7682 106.995 10.7018 106.384 10.7018Z" fill="#1F1F1F"/>
<path d="M128.603 19.6135C128.603 21.7739 128.55 23.3057 128.444 24.2088C128.347 25.1031 128.028 25.9221 127.488 26.6658C126.957 27.4096 126.235 27.9807 125.323 28.3791C124.411 28.7775 123.348 28.9768 122.135 28.9768C120.984 28.9768 119.948 28.7908 119.028 28.4189C118.116 28.0382 117.381 27.4716 116.823 26.7189C116.265 25.9663 115.933 25.1473 115.827 24.2619C115.721 23.3765 115.667 21.827 115.667 19.6135V15.9346C115.667 13.7742 115.716 12.2468 115.814 11.3525C115.92 10.4494 116.239 9.62598 116.77 8.88223C117.31 8.13848 118.036 7.56738 118.948 7.16895C119.86 6.77051 120.922 6.57129 122.135 6.57129C123.286 6.57129 124.318 6.76165 125.23 7.14238C126.151 7.51426 126.89 8.0765 127.448 8.8291C128.006 9.58171 128.338 10.4007 128.444 11.2861C128.55 12.1715 128.603 13.721 128.603 15.9346V19.6135ZM123.012 12.5479C123.012 11.5473 122.954 10.9098 122.839 10.6354C122.733 10.352 122.507 10.2104 122.162 10.2104C121.87 10.2104 121.644 10.3255 121.485 10.5557C121.334 10.777 121.259 11.4411 121.259 12.5479V22.5885C121.259 23.8369 121.308 24.6072 121.405 24.8994C121.511 25.1916 121.75 25.3377 122.122 25.3377C122.503 25.3377 122.746 25.1695 122.853 24.833C122.959 24.4966 123.012 23.6952 123.012 22.4291V12.5479Z" fill="#1F1F1F"/>
<path d="M142.031 7.02285L140.078 16.5322L143.027 28.5252H137.847C137.227 26.3825 136.661 23.7749 136.147 20.7025C136.005 22.0572 135.811 23.496 135.563 25.0189L135.032 28.5252H129.586L131.605 16.5322L129.586 7.02285H134.992C135.089 7.61608 135.284 8.60332 135.576 9.98457C135.806 11.0382 135.997 12.0033 136.147 12.8799L137.342 7.02285H142.031Z" fill="#1F1F1F"/>
<path d="M156.308 7.02285V28.5252H151.407L148.499 18.7502V28.5252H143.824V7.02285H148.499L151.633 16.7049V7.02285H156.308Z" fill="#1F1F1F"/>
</svg>
