<svg width="20" height="20" viewBox="0 0 20 20" fill="none" xmlns="http://www.w3.org/2000/svg">
<path d="M10 0.4375C8.10872 0.4375 6.25991 0.998331 4.68736 2.04907C3.11482 3.09981 1.88917 4.59327 1.16541 6.34059C0.441643 8.08791 0.252274 10.0106 0.621245 11.8656C0.990216 13.7205 1.90096 15.4244 3.2383 16.7617C4.57564 18.0991 6.27951 19.0098 8.13445 19.3788C9.9894 19.7477 11.9121 19.5584 13.6594 18.8346C15.4067 18.1108 16.9002 16.8852 17.9509 15.3126C19.0017 13.7401 19.5625 11.8913 19.5625 10C19.5595 7.46478 18.5511 5.03425 16.7584 3.24158C14.9658 1.44891 12.5352 0.440477 10 0.4375ZM10 18.4375C8.33122 18.4375 6.69992 17.9426 5.31238 17.0155C3.92484 16.0884 2.84339 14.7706 2.20477 13.2289C1.56616 11.6871 1.39907 9.99064 1.72463 8.35393C2.05019 6.71721 2.85379 5.21379 4.03379 4.03379C5.2138 2.85378 6.71722 2.05019 8.35393 1.72462C9.99065 1.39906 11.6871 1.56615 13.2289 2.20477C14.7706 2.84338 16.0884 3.92484 17.0155 5.31238C17.9427 6.69992 18.4375 8.33122 18.4375 10C18.435 12.237 17.5453 14.3817 15.9635 15.9635C14.3817 17.5453 12.237 18.435 10 18.4375ZM11.8975 6.6475L8.54594 10L11.8975 13.3525C11.9528 13.404 11.9971 13.4661 12.0278 13.5351C12.0586 13.6041 12.0751 13.6786 12.0764 13.7541C12.0778 13.8296 12.0639 13.9047 12.0356 13.9747C12.0073 14.0447 11.9652 14.1084 11.9118 14.1618C11.8584 14.2152 11.7947 14.2573 11.7247 14.2856C11.6547 14.3139 11.5796 14.3278 11.5041 14.3264C11.4286 14.3251 11.3541 14.3086 11.2851 14.2778C11.2161 14.2471 11.154 14.2028 11.1025 14.1475L7.35251 10.3975C7.24717 10.292 7.188 10.1491 7.188 10C7.188 9.85094 7.24717 9.70797 7.35251 9.6025L11.1025 5.8525C11.2091 5.75314 11.3502 5.69905 11.4959 5.70162C11.6416 5.70419 11.7807 5.76322 11.8837 5.86628C11.9868 5.96934 12.0458 6.10838 12.0484 6.25411C12.051 6.39983 11.9969 6.54087 11.8975 6.6475Z" fill="black"/>
</svg>
