<svg width="20" height="20" viewBox="0 0 20 20" fill="none" xmlns="http://www.w3.org/2000/svg">
<path d="M10 0.4375C8.10872 0.4375 6.25991 0.998331 4.68736 2.04907C3.11482 3.09981 1.88917 4.59327 1.16541 6.34059C0.441643 8.08791 0.252274 10.0106 0.621245 11.8656C0.990216 13.7205 1.90096 15.4244 3.2383 16.7617C4.57564 18.0991 6.27951 19.0098 8.13445 19.3788C9.9894 19.7477 11.9121 19.5584 13.6594 18.8346C15.4067 18.1108 16.9002 16.8852 17.9509 15.3126C19.0017 13.7401 19.5625 11.8913 19.5625 10C19.5595 7.46478 18.5511 5.03425 16.7584 3.24158C14.9658 1.44891 12.5352 0.440477 10 0.4375ZM10 18.4375C8.33122 18.4375 6.69992 17.9426 5.31238 17.0155C3.92484 16.0884 2.84339 14.7706 2.20477 13.2289C1.56616 11.6871 1.39907 9.99064 1.72463 8.35393C2.05019 6.71721 2.85379 5.21379 4.03379 4.03379C5.2138 2.85378 6.71722 2.05019 8.35393 1.72462C9.99065 1.39906 11.6871 1.56615 13.2289 2.20477C14.7706 2.84338 16.0884 3.92484 17.0155 5.31238C17.9427 6.69992 18.4375 8.33122 18.4375 10C18.435 12.237 17.5453 14.3817 15.9635 15.9635C14.3817 17.5453 12.237 18.435 10 18.4375ZM12.6475 9.6025C12.7528 9.70797 12.812 9.85094 12.812 10C12.812 10.1491 12.7528 10.292 12.6475 10.3975L8.8975 14.1475C8.79087 14.2469 8.64984 14.301 8.50411 14.2984C8.35839 14.2958 8.21935 14.2368 8.11629 14.1337C8.01323 14.0307 7.95419 13.8916 7.95162 13.7459C7.94905 13.6002 8.00315 13.4591 8.10251 13.3525L11.4541 10L8.10251 6.6475C8.00315 6.54087 7.94905 6.39983 7.95162 6.25411C7.95419 6.10838 8.01323 5.96934 8.11629 5.86628C8.21935 5.76322 8.35839 5.70419 8.50411 5.70162C8.64984 5.69905 8.79087 5.75314 8.8975 5.8525L12.6475 9.6025Z" fill="black"/>
</svg>
