<svg width="34" height="25" viewBox="0 0 34 25" fill="none" xmlns="http://www.w3.org/2000/svg">
<path d="M26.9066 8.52285H24.892L25.499 1.51232C25.5001 1.49962 25.5003 1.48711 25.5003 1.4746C25.5003 1.47353 25.5005 1.47253 25.5005 1.47146C25.5005 1.47127 25.5005 1.47115 25.5005 1.47096C25.5005 1.28015 25.386 1.11197 25.2178 1.03885C25.2164 1.03822 25.215 1.03747 25.2136 1.03684C25.2032 1.03244 25.1923 1.02867 25.1815 1.02502C25.1774 1.0237 25.1735 1.02207 25.1695 1.02081C25.1606 1.01811 25.1515 1.01597 25.1424 1.01377C25.136 1.01226 25.1299 1.01044 25.1235 1.00918C25.1155 1.00761 25.1073 1.0066 25.0991 1.00541C25.0915 1.00428 25.084 1.00296 25.0763 1.00226C25.075 1.00214 25.0738 1.00189 25.0725 1.00176C25.0643 1.00101 25.0562 1.00113 25.048 1.00082C25.0425 1.00063 25.0371 1 25.0316 1H25.0257C25.0252 1 25.0247 1 25.0243 1H15.4384C15.1796 1 14.9696 1.21124 14.9696 1.47152C14.9696 1.73117 15.1796 1.94304 15.4384 1.94304H24.5206L23.5877 12.7173C23.5876 12.7181 23.5876 12.719 23.5875 12.7198L23.3521 15.4383H7.06374L7.33618 12.6093H10.4376C10.6965 12.6093 10.9063 12.3982 10.9063 12.1378C10.9063 11.8774 10.6965 11.6663 10.4376 11.6663H7.42706L8.00232 5.69397H12.9384C13.1973 5.69397 13.4071 5.48286 13.4071 5.22245C13.4071 4.96204 13.1973 4.75093 12.9384 4.75093H8.0932L8.3637 1.94304H13.5634C13.8215 1.94304 14.0321 1.73117 14.0321 1.47152C14.0321 1.21124 13.8215 1 13.5634 1H7.93826C7.93801 1 7.93782 1.00006 7.93757 1.00006C7.71738 1 7.52638 1.15592 7.48019 1.37206C7.47987 1.37363 7.47931 1.37514 7.479 1.37672C7.47662 1.38847 7.47506 1.40048 7.4735 1.41255C7.47306 1.41639 7.47225 1.42003 7.47187 1.42387C7.47181 1.42462 7.47162 1.42531 7.47156 1.42607L7.15131 4.75093H1.46876C1.20982 4.75093 1 4.96204 1 5.22245C1 5.48286 1.20982 5.69397 1.46876 5.69397H7.06043L6.48517 11.6663H4.8127C4.55376 11.6663 4.34394 11.8774 4.34394 12.1378C4.34394 12.3982 4.55376 12.6093 4.8127 12.6093H6.39435L6.0811 15.861C6.08103 15.8615 6.08104 15.862 6.08097 15.8624L5.59665 20.8907C5.59659 20.8913 5.59653 20.8919 5.59646 20.8924L5.59628 20.8942C5.59565 20.9007 5.59571 20.9072 5.59534 20.9137C5.5949 20.9224 5.59403 20.9309 5.59403 20.9397C5.59403 20.94 5.59409 20.9404 5.59409 20.9409C5.59409 20.953 5.59496 20.9649 5.59584 20.9769C5.59621 20.9807 5.59609 20.9846 5.59653 20.9884C5.59778 21.0006 5.59984 21.0126 5.60203 21.0245C5.60265 21.0281 5.60296 21.0316 5.60365 21.0351C5.60546 21.0442 5.60803 21.0529 5.6104 21.0618C5.61203 21.068 5.61334 21.0743 5.61521 21.0804C5.61578 21.0821 5.61653 21.0838 5.61703 21.0855C5.63971 21.1557 5.67821 21.2187 5.72847 21.2701C5.7294 21.2711 5.73015 21.2721 5.73109 21.273C5.73609 21.278 5.74153 21.2826 5.74678 21.2873C5.77909 21.3171 5.81559 21.3424 5.85553 21.3622C5.86384 21.3664 5.87203 21.3707 5.88053 21.3743C5.88309 21.3754 5.88584 21.3762 5.88847 21.3772C5.90022 21.3819 5.91203 21.3864 5.92422 21.3903C5.92534 21.3906 5.92641 21.3908 5.92753 21.3911C5.94141 21.3953 5.95541 21.3989 5.96972 21.4019C5.9716 21.4023 5.97353 21.4024 5.97535 21.4028C5.98897 21.4053 6.00266 21.4075 6.0166 21.4089C6.01691 21.4089 6.01716 21.409 6.01747 21.409C6.03285 21.4106 6.0481 21.4113 6.06322 21.4113C6.06341 21.4113 6.06366 21.4112 6.06391 21.4112H8.1507C8.38114 23.1686 9.87898 24.5298 11.6881 24.5298C13.4971 24.5298 14.9949 23.1686 15.2253 21.4112H22.7442C22.9747 23.1686 24.4725 24.5298 26.2815 24.5298C28.0905 24.5298 29.5884 23.1686 29.8189 21.4112H31.9062C31.9065 21.4112 31.9069 21.4113 31.9072 21.4113C31.9228 21.4113 31.9382 21.4104 31.9535 21.4089C31.9562 21.4086 31.9588 21.408 31.9616 21.4077C31.9738 21.4063 31.9859 21.4046 31.9978 21.4022C32.0029 21.4012 32.0078 21.3998 32.0129 21.3986C32.0221 21.3965 32.0313 21.3942 32.0403 21.3915C32.0465 21.3897 32.0524 21.3875 32.0584 21.3855C32.0661 21.3828 32.0738 21.3801 32.0813 21.377C32.0878 21.3744 32.094 21.3716 32.1003 21.3687C32.1072 21.3655 32.1141 21.3623 32.1208 21.3588C32.1272 21.3555 32.1333 21.3522 32.1394 21.3486C32.1458 21.3449 32.1522 21.341 32.1585 21.3369C32.1644 21.3332 32.1703 21.3293 32.1759 21.3253C32.1823 21.3208 32.1883 21.3161 32.1945 21.3113C32.1997 21.3073 32.2048 21.3032 32.2098 21.299C32.2163 21.2935 32.2223 21.2878 32.2285 21.2819C32.2327 21.2778 32.2372 21.2738 32.2413 21.2695C32.2478 21.2629 32.254 21.2558 32.2602 21.2487C32.2635 21.2449 32.2669 21.2412 32.2701 21.2373C32.277 21.2287 32.2832 21.2199 32.2895 21.2111C32.2916 21.208 32.294 21.2051 32.296 21.202C32.3037 21.1905 32.3109 21.1786 32.3175 21.1664C32.318 21.1657 32.3185 21.165 32.3188 21.1642C32.3259 21.1511 32.3324 21.1377 32.3382 21.1239C32.3398 21.1199 32.341 21.1158 32.3426 21.1119C32.3464 21.1021 32.3502 21.0924 32.3534 21.0823C32.3554 21.0757 32.3569 21.069 32.3587 21.0624C32.3608 21.0545 32.363 21.0467 32.3647 21.0387C32.3663 21.0316 32.3673 21.0243 32.3685 21.0171C32.3695 21.0108 32.3709 21.0045 32.3717 20.9981C32.3916 20.8379 32.7587 17.8755 32.9226 15.96C32.9228 15.9582 32.9229 15.9563 32.923 15.9545C32.9702 15.4023 33.0005 14.9373 33.0005 14.6526C33.0005 11.2727 30.2668 8.52285 26.9066 8.52285ZM24.8103 9.46602H26.728L26.4831 12.2949H24.5653L24.8103 9.46602ZM11.6882 23.5867C10.2371 23.5867 9.05659 22.3992 9.05659 20.9396C9.05659 19.48 10.2372 18.2925 11.6882 18.2925C13.1392 18.2925 14.3198 19.48 14.3198 20.9396C14.3198 22.3992 13.1392 23.5867 11.6882 23.5867ZM26.2815 23.5867C24.8305 23.5867 23.65 22.3992 23.65 20.9396C23.65 19.48 24.8305 18.2925 26.2815 18.2925C27.7326 18.2925 28.9131 19.48 28.9131 20.9396C28.9131 22.3992 27.7326 23.5867 26.2815 23.5867ZM31.492 20.4679H29.8191C29.5887 18.7104 28.0908 17.3492 26.2816 17.3492C24.4726 17.3492 22.9747 18.7104 22.7443 20.4679H15.2255C14.9951 18.7104 13.4973 17.3492 11.6882 17.3492C9.87911 17.3492 8.38114 18.7104 8.15076 20.4679H6.57923L6.97293 16.3811H23.7817V16.3814C23.7819 16.3814 23.7821 16.3814 23.7824 16.3814C23.7981 16.3814 23.8136 16.3805 23.829 16.3789C23.8319 16.3787 23.8347 16.378 23.8376 16.3777C23.8498 16.3762 23.862 16.3744 23.874 16.3721C23.8792 16.371 23.8843 16.3695 23.8894 16.3683C23.8988 16.366 23.9081 16.3638 23.9173 16.3611C23.9235 16.3592 23.9294 16.3569 23.9355 16.3548C23.9434 16.352 23.9513 16.3493 23.9589 16.3462C23.9654 16.3435 23.9718 16.3404 23.9781 16.3374C23.9851 16.3342 23.992 16.331 23.9987 16.3275C24.0051 16.3241 24.0113 16.3204 24.0176 16.3168C24.0241 16.313 24.0304 16.3092 24.0367 16.3052C24.0428 16.3012 24.0485 16.2971 24.0543 16.2929C24.0605 16.2885 24.0665 16.284 24.0725 16.2793C24.0779 16.2749 24.0832 16.2705 24.0884 16.2659C24.0944 16.2607 24.1002 16.2554 24.1058 16.25C24.1106 16.2454 24.1153 16.2407 24.1199 16.2358C24.1256 16.2299 24.131 16.2238 24.1364 16.2176C24.1406 16.2127 24.1447 16.2078 24.1487 16.2028C24.1539 16.1962 24.1588 16.1894 24.1637 16.1825C24.1674 16.1774 24.1709 16.1722 24.1744 16.1669C24.179 16.1598 24.1834 16.1525 24.1876 16.1451C24.1908 16.1396 24.194 16.134 24.1969 16.1284C24.2008 16.121 24.2042 16.1134 24.2078 16.1058C24.2105 16.0997 24.2133 16.0937 24.2158 16.0874C24.2189 16.08 24.2214 16.0724 24.2241 16.0648C24.2264 16.0581 24.2289 16.0514 24.2309 16.0444C24.233 16.0372 24.2347 16.0297 24.2366 16.0223C24.2384 16.0148 24.2404 16.0074 24.2418 15.9997C24.2433 15.9923 24.2441 15.9848 24.2453 15.9772C24.2464 15.9694 24.2477 15.9618 24.2484 15.9539C24.2486 15.9527 24.2488 15.9517 24.2489 15.9505L24.4838 13.2377H26.9065C28.3427 13.2377 28.9905 13.9862 29.6762 14.7788C30.242 15.4327 30.8737 16.1623 31.9475 16.3403C31.8111 17.7907 31.5907 19.6526 31.492 20.4679ZM32.0276 15.3953C31.331 15.2525 30.9024 14.7599 30.3833 14.1599C29.7339 13.4095 28.9412 12.4938 27.4216 12.3232L27.6641 9.52248C30.1494 9.89222 32.063 12.0517 32.063 14.6528C32.063 14.8295 32.0498 15.0863 32.0276 15.3953Z" fill="#1F1F1F" stroke="#1F1F1F" stroke-width="0.2"/>
<path d="M11.6875 19.2109C10.7398 19.2109 9.96875 19.9865 9.96875 20.9399C9.96875 21.8932 10.7398 22.6688 11.6875 22.6688C12.6352 22.6688 13.4063 21.8932 13.4063 20.9399C13.4063 19.9866 12.6352 19.2109 11.6875 19.2109ZM11.6875 21.7257C11.2567 21.7257 10.9063 21.3732 10.9063 20.9399C10.9063 20.5065 11.2567 20.154 11.6875 20.154C12.1184 20.154 12.4688 20.5065 12.4688 20.9399C12.4688 21.3732 12.1183 21.7257 11.6875 21.7257Z" fill="#1F1F1F"/>
<path d="M26.2813 19.2109C25.3336 19.2109 24.5625 19.9865 24.5625 20.9399C24.5625 21.8932 25.3336 22.6688 26.2813 22.6688C27.229 22.6688 28.0001 21.8932 28.0001 20.9399C28.0001 19.9866 27.229 19.2109 26.2813 19.2109ZM26.2813 21.7257C25.8505 21.7257 25.5 21.3732 25.5 20.9399C25.5 20.5065 25.8505 20.154 26.2813 20.154C26.7121 20.154 27.0625 20.5065 27.0625 20.9399C27.0625 21.3732 26.7121 21.7257 26.2813 21.7257Z" fill="#1F1F1F"/>
<path d="M5.43816 8.52246H3.14649C2.88755 8.52246 2.67773 8.73358 2.67773 8.99398C2.67773 9.25439 2.88755 9.46551 3.14649 9.46551H5.43816C5.6971 9.46551 5.90692 9.25439 5.90692 8.99398C5.90692 8.73358 5.6971 8.52246 5.43816 8.52246Z" fill="#1F1F1F" stroke="#1F1F1F" stroke-width="0.2"/>
</svg>
