<svg width="12" height="12" viewBox="0 0 12 12" fill="none" xmlns="http://www.w3.org/2000/svg">
<path fill-rule="evenodd" clip-rule="evenodd" d="M3.1085 7.16559L0.995984 5.41682C0.597263 5.09796 0.772141 4.45674 1.27812 4.38446L4.27435 4.25097L5.55387 1.04313C5.64306 0.86534 5.82435 0.753418 6.02312 0.753418C6.2219 0.753418 6.40319 0.865923 6.49238 1.04313L7.7719 4.25097L10.7681 4.38446C11.2741 4.45674 11.449 5.09796 11.0503 5.41682L8.93774 7.16559L9.51426 10.5798C9.58071 11.0455 9.09688 11.3941 8.67659 11.1837L6.02312 9.49729L3.36965 11.1831C2.94878 11.3935 2.46554 11.045 2.53199 10.5792L3.1085 7.16559Z" fill="#E9E9E9"/>
</svg>
