<svg width="20" height="20" viewBox="0 0 20 20" fill="none" xmlns="http://www.w3.org/2000/svg">
<path d="M9.60251 5.07671C6.87831 5.07671 4.68097 7.27406 4.68097 9.99825C4.68097 12.7224 6.87831 14.9198 9.60251 14.9198C12.3267 14.9198 14.524 12.7224 14.524 9.99825C14.524 7.27406 12.3267 5.07671 9.60251 5.07671ZM9.60251 13.1979C7.84206 13.1979 6.40286 11.763 6.40286 9.99825C6.40286 8.23352 7.83778 6.79861 9.60251 6.79861C11.3672 6.79861 12.8022 8.23352 12.8022 9.99825C12.8022 11.763 11.363 13.1979 9.60251 13.1979ZM15.8733 4.87539C15.8733 5.51361 15.3593 6.02332 14.7254 6.02332C14.0871 6.02332 13.5774 5.50933 13.5774 4.87539C13.5774 4.24146 14.0914 3.72746 14.7254 3.72746C15.3593 3.72746 15.8733 4.24146 15.8733 4.87539ZM19.1329 6.04046C19.0601 4.50274 18.7089 3.14065 17.5823 2.01842C16.4601 0.896185 15.098 0.544953 13.5603 0.467853C11.9755 0.377903 7.22526 0.377903 5.64043 0.467853C4.107 0.54067 2.74491 0.891902 1.61839 2.01413C0.491878 3.13636 0.144928 4.49846 0.0678286 6.03617C-0.0221212 7.621 -0.0221212 12.3712 0.0678286 13.956C0.140645 15.4938 0.491878 16.8559 1.61839 17.9781C2.74491 19.1003 4.10272 19.4515 5.64043 19.5286C7.22526 19.6186 11.9755 19.6186 13.5603 19.5286C15.098 19.4558 16.4601 19.1046 17.5823 17.9781C18.7046 16.8559 19.0558 15.4938 19.1329 13.956C19.2229 12.3712 19.2229 7.62529 19.1329 6.04046ZM17.0855 15.6565C16.7514 16.4961 16.1046 17.1428 15.2608 17.4812C13.9972 17.9824 10.9989 17.8667 9.60251 17.8667C8.20615 17.8667 5.20353 17.9781 3.94424 17.4812C3.10471 17.1471 2.45792 16.5003 2.11954 15.6565C1.61839 14.3929 1.73404 11.3946 1.73404 9.99825C1.73404 8.60189 1.62268 5.59928 2.11954 4.33998C2.45364 3.50045 3.10042 2.85366 3.94424 2.51528C5.20782 2.01413 8.20615 2.12978 9.60251 2.12978C10.9989 2.12978 14.0015 2.01842 15.2608 2.51528C16.1003 2.84938 16.7471 3.49616 17.0855 4.33998C17.5866 5.60356 17.471 8.60189 17.471 9.99825C17.471 11.3946 17.5866 14.3972 17.0855 15.6565Z" fill="#1F1F1F"/>
</svg>
