<svg width="16" height="14" viewBox="0 0 16 14" fill="none" xmlns="http://www.w3.org/2000/svg">
<path d="M11.6102 0.100403C10.1858 0.100403 8.93864 0.712946 8.16124 1.74834C7.38383 0.712946 6.13667 0.100403 4.71223 0.100403C3.57835 0.101681 2.49128 0.552678 1.68951 1.35445C0.887738 2.15622 0.436741 3.24329 0.435463 4.37717C0.435463 9.20578 7.59491 13.1142 7.8998 13.2756C7.98016 13.3188 8.06999 13.3415 8.16124 13.3415C8.25249 13.3415 8.34231 13.3188 8.42267 13.2756C8.72756 13.1142 15.887 9.20578 15.887 4.37717C15.8857 3.24329 15.4347 2.15622 14.633 1.35445C13.8312 0.552678 12.7441 0.101681 11.6102 0.100403ZM8.16124 12.1581C6.90166 11.4242 1.53915 8.08071 1.53915 4.37717C1.54024 3.53595 1.8749 2.7295 2.46973 2.13467C3.06456 1.53984 3.87101 1.20518 4.71223 1.20408C6.05389 1.20408 7.18034 1.91872 7.65078 3.06655C7.69236 3.16776 7.76309 3.25433 7.85398 3.31526C7.94487 3.37618 8.05182 3.40871 8.16124 3.40871C8.27066 3.40871 8.37761 3.37618 8.4685 3.31526C8.55939 3.25433 8.63011 3.16776 8.67169 3.06655C9.14214 1.91665 10.2686 1.20408 11.6102 1.20408C12.4515 1.20518 13.2579 1.53984 13.8527 2.13467C14.4476 2.7295 14.7822 3.53595 14.7833 4.37717C14.7833 8.0752 9.41944 11.4235 8.16124 12.1581Z" fill="#696C70"/>
</svg>
