<svg width="16" height="20" viewBox="0 0 16 20" fill="none" xmlns="http://www.w3.org/2000/svg">
<path d="M8.24836 0.400391C4.30148 0.400391 0.400757 3.03165 0.400757 7.29012C0.400757 9.99832 1.92411 11.5371 2.84736 11.5371C3.2282 11.5371 3.44747 10.4753 3.44747 10.1753C3.44747 9.81752 2.53577 9.05584 2.53577 7.5671C2.53577 4.47422 4.89005 2.28151 7.93676 2.28151C10.5565 2.28151 12.4953 3.77024 12.4953 6.50536C12.4953 8.54805 11.6759 12.3795 9.02158 12.3795C8.06371 12.3795 7.24433 11.6871 7.24433 10.6946C7.24433 9.24049 8.2599 7.83253 8.2599 6.33226C8.2599 3.78563 4.64769 4.24726 4.64769 7.32475C4.64769 7.97102 4.72848 8.68654 5.01699 9.27511C4.48613 11.5601 3.40131 14.9646 3.40131 17.3189C3.40131 18.046 3.50518 18.7615 3.57442 19.4885C3.70521 19.6347 3.63982 19.6193 3.83985 19.5462C5.77867 16.8919 5.70943 16.3726 6.58651 12.8989C7.05968 13.799 8.28298 14.2837 9.25239 14.2837C13.3378 14.2837 15.1727 10.3022 15.1727 6.7131C15.1727 2.89316 11.8721 0.400391 8.24836 0.400391Z" fill="#1F1F1F"/>
</svg>
