<svg width="32" height="32" viewBox="0 0 32 32" fill="none" xmlns="http://www.w3.org/2000/svg">
<path d="M23.2203 11.7446H26.0452L23.7879 16.8796M17.9273 15.364H14.7027C14.7027 15.364 16.41 12.2694 16.6918 11.9237C16.9767 11.5742 17.2464 11.7922 17.2722 12.1005C17.2979 12.4088 17.2593 16.8796 17.2593 16.8796M13.8678 16.918C13.8678 16.918 11.3694 16.9494 11.251 16.91C11.1327 16.8705 11.4407 16.6621 13.0788 14.3217C13.3847 13.8846 13.5531 13.5159 13.6247 13.2069L13.6501 13.0083C13.6501 12.2826 13.0618 11.6943 12.3361 11.6943C11.6976 11.6943 11.1654 12.1498 11.0469 12.7536M21.4625 11.7446L19.4002 16.9298" stroke="#1F1F1F" stroke-width="1.1" stroke-miterlimit="10" stroke-linecap="round" stroke-linejoin="round"/>
<path d="M2.01753 17.3833C1.31733 15.8082 0.881036 14.1493 1.02868 12.5889C1.06544 12.2008 1.24514 11.84 1.52081 11.5644L3.7953 9.28993C4.44612 8.63911 5.52298 8.71746 6.07269 9.45568L8.64181 12.8709C8.77449 13.0473 8.83817 13.2661 8.82088 13.4861C8.80358 13.7062 8.7065 13.9123 8.54788 14.0658L6.88371 15.6763C6.78456 15.7723 6.72128 15.8993 6.7044 16.0362C6.68752 16.1732 6.71806 16.3118 6.79093 16.4289V16.429C9.00587 19.99 12.0099 22.994 15.5709 25.209C15.6881 25.2818 15.8267 25.3123 15.9636 25.2955C16.1005 25.2786 16.2275 25.2153 16.3235 25.1162L17.934 23.452C18.0875 23.2934 18.2936 23.1963 18.5137 23.179C18.7337 23.1617 18.9525 23.2254 19.1289 23.3581L22.5441 25.9272C23.2824 26.4769 23.3607 27.5538 22.7099 28.2046L20.4354 30.4791C20.1496 30.7643 19.7726 30.9399 19.3703 30.9749C13.8889 31.4577 7.21558 24.7844 7.21558 24.7844C7.21558 24.7844 4.78825 22.357 2.96732 19.2278" stroke="#1F1F1F" stroke-width="1.1" stroke-miterlimit="10" stroke-linecap="round" stroke-linejoin="round"/>
<path d="M10.1631 5.90171C14.5943 1.92955 21.4103 2.0729 25.6693 6.33185C30.0767 10.7392 30.0767 17.8849 25.6693 22.2923C24.4407 23.5208 22.9995 24.4069 21.464 24.9505M7.03711 10.5754C7.44604 9.40676 8.04579 8.31396 8.81199 7.3414" stroke="#1F1F1F" stroke-width="1.1" stroke-miterlimit="10" stroke-linecap="round" stroke-linejoin="round"/>
<path d="M27.7075 5.54503C32.2924 10.7739 32.0907 18.7362 27.1023 23.7245C25.921 24.9059 24.5728 25.8188 23.1336 26.4632M5.54688 8.8479C6.19081 7.41618 7.10077 6.07489 8.27674 4.89892C13.208 -0.0323361 21.0457 -0.285916 26.2758 4.1383" stroke="#1F1F1F" stroke-width="1.1" stroke-miterlimit="10" stroke-linecap="round" stroke-linejoin="round"/>
</svg>
