<svg width="76" height="67" viewBox="0 0 76 67" fill="none" xmlns="http://www.w3.org/2000/svg">
<path d="M70.3366 0.666992H45.7611C45.2082 0.666992 44.7601 1.11187 44.7601 1.6609C44.7601 2.20993 45.2082 2.65481 45.7611 2.65481H70.3366C71.849 2.65481 73.0794 3.87652 73.0794 5.37811V30.972C73.0794 32.4736 71.849 33.6953 70.3366 33.6953H66.4113C66.2005 33.6953 65.9949 33.7615 65.8242 33.8843L58.9985 38.793V34.6893C58.9985 34.1402 58.5505 33.6953 57.9975 33.6953H36.2702C34.7577 33.6953 33.5274 32.4736 33.5274 30.972V5.37811C33.5274 3.87652 34.7579 2.65481 36.2702 2.65481H41.3994C41.9523 2.65481 42.4004 2.20993 42.4004 1.6609C42.4004 1.11187 41.9523 0.666992 41.3994 0.666992H36.2702C33.6538 0.666992 31.5254 2.7803 31.5254 5.37811V30.972C31.5254 33.5698 33.6539 35.6832 36.2702 35.6832H56.9965V40.7402C56.9965 41.1136 57.2074 41.4555 57.5424 41.6254C57.8974 41.7934 58.2448 41.7667 58.5848 41.5452L66.7358 35.6833H70.3366C72.953 35.6833 75.0814 33.57 75.0814 30.9722V5.37811C75.0814 2.78044 72.9529 0.666992 70.3366 0.666992Z" fill="#1F1F1F" stroke="#1F1F1F" stroke-width="0.4"/>
<path d="M63.9377 54.9173C63.7097 53.2873 62.7503 51.9015 61.3026 51.1127L56.439 48.4629C55.9086 48.1734 55.2444 48.3694 54.9554 48.9002C54.6666 49.4306 54.8623 50.0948 55.3928 50.3837L60.2559 53.0334C61.088 53.4866 61.6394 54.2825 61.7712 55.2186C61.7719 55.2246 61.7726 55.2306 61.7735 55.2364C61.9011 56.1819 61.5793 57.1043 60.891 57.7661L60.1741 58.4544L42.2189 48.3513L44.329 46.4952C45.2292 45.7032 46.5396 45.5569 47.5909 46.1312L50.6256 47.785C51.156 48.0739 51.8202 47.8785 52.1094 47.348C52.3983 46.8176 52.2029 46.1534 51.6723 45.8642L48.6384 44.2108C46.7843 43.1985 44.4717 43.4562 42.8845 44.8526L37.967 49.178C36.9598 50.0639 35.4897 50.1461 34.3924 49.3775C26.9855 44.1885 21.6066 38.4799 17.9484 31.9263C17.3316 30.8198 17.5039 29.4551 18.377 28.5307L22.2694 24.4139C23.7208 22.8771 24.0611 20.5749 23.1161 18.685L16.5658 5.58445C15.8361 4.12311 14.4959 3.11647 12.8891 2.82248C11.2812 2.52791 9.6705 2.99558 8.46947 4.10459L5.98165 6.40298C3.23163 8.9433 1.41171 12.2285 0.718734 15.9031C0.0244487 19.5837 0.529741 23.2967 2.17978 26.6417C2.18707 26.6571 2.19393 26.6705 2.19961 26.6816C3.2452 28.7961 4.3758 30.8638 5.55787 32.8239C5.75518 33.1537 5.96794 33.5023 6.18989 33.86C6.50852 34.373 7.18269 34.5308 7.696 34.2123C8.20917 33.8937 8.36695 33.2194 8.04846 32.7062C7.83278 32.3587 7.62629 32.0204 7.43307 31.6975C6.28162 29.7882 5.18179 27.7769 4.16406 25.7194C4.15837 25.7075 4.15253 25.6958 4.14656 25.6842C1.27142 19.8667 2.55601 12.7285 7.25414 8.21358L17.1175 26.6791L16.7872 27.0285C15.2547 28.6507 14.9535 31.0473 16.0381 32.9922C19.8609 39.841 25.454 45.7866 33.1374 51.1693C34.0193 51.7868 35.0379 52.0916 36.053 52.0916C37.2557 52.0916 38.4532 51.6635 39.4117 50.8204L40.4788 49.8819L58.5261 60.0367L58.5079 60.0542C53.856 64.5236 46.8873 65.5407 41.1676 62.5851C28.77 56.1768 18.6915 47.7057 11.2122 37.4077C10.8571 36.9189 10.1732 36.8102 9.6845 37.1654C9.19569 37.5205 9.08734 38.2043 9.44228 38.6931C17.1239 49.2697 27.4599 57.9621 40.163 64.5287C42.6636 65.8207 45.3713 66.4501 48.0612 66.4501C52.4193 66.4501 56.7291 64.7969 60.0229 61.6322L62.4063 59.3436C63.5951 58.2005 64.155 56.6117 63.9458 54.9793C63.9437 54.9585 63.941 54.938 63.9377 54.9173ZM8.91162 6.67408L9.9537 5.71147C10.6443 5.07376 11.5703 4.8053 12.4953 4.97416C13.419 5.14318 14.1894 5.72182 14.6091 6.56237L21.1597 19.6635C21.6954 20.7351 21.5024 22.0405 20.6796 22.9115L18.702 25.0031L8.91162 6.67408Z" fill="#1F1F1F" stroke="#1F1F1F" stroke-width="0.4"/>
<path d="M66.8929 18.6545C66.8929 16.5479 65.179 14.834 63.0723 14.834C60.9659 14.834 59.252 16.5479 59.252 18.6545C59.252 20.761 60.9659 22.4749 63.0723 22.4749C65.179 22.4749 66.8929 20.761 66.8929 18.6545ZM61.4392 18.6545C61.4392 17.754 62.1717 17.0214 63.0722 17.0214C63.9727 17.0214 64.7053 17.754 64.7053 18.6545C64.7053 19.555 63.9727 20.2875 63.0722 20.2875C62.1717 20.2875 61.4392 19.555 61.4392 18.6545Z" fill="#1F1F1F"/>
<path d="M56.7659 18.6545C56.7659 16.5479 55.052 14.834 52.9455 14.834C50.8389 14.834 49.125 16.5479 49.125 18.6545C49.125 20.761 50.8389 22.4749 52.9455 22.4749C55.052 22.4749 56.7659 20.761 56.7659 18.6545ZM51.3123 18.6545C51.3123 17.754 52.0449 17.0214 52.9454 17.0214C53.8459 17.0214 54.5784 17.754 54.5784 18.6545C54.5784 19.555 53.8459 20.2875 52.9454 20.2875C52.0449 20.2875 51.3123 19.555 51.3123 18.6545Z" fill="#1F1F1F"/>
<path d="M38.9941 18.6545C38.9941 20.761 40.7079 22.4749 42.8147 22.4749C44.9214 22.4749 46.6352 20.761 46.6352 18.6545C46.6352 16.5479 44.9213 14.834 42.8147 14.834C40.7081 14.834 38.9941 16.5479 38.9941 18.6545ZM42.8147 17.0214C43.7152 17.0214 44.4478 17.754 44.4478 18.6545C44.4478 19.555 43.7152 20.2875 42.8147 20.2875C41.9142 20.2875 41.1817 19.555 41.1817 18.6545C41.1817 17.754 41.9142 17.0214 42.8147 17.0214Z" fill="#1F1F1F"/>
</svg>
