<svg width="27" height="28" viewBox="0 0 27 28" fill="none" xmlns="http://www.w3.org/2000/svg">
<path d="M13.4438 0.127136C6.30343 0.127136 0.393005 6.15942 0.393005 13.5744C0.393005 20.9894 6.30343 27.1271 13.4438 27.1271C20.5841 27.1271 26.393 20.9894 26.393 13.5744C26.393 6.15942 20.5841 0.127136 13.4438 0.127136ZM20.2993 15.1564H14.9672V20.799C14.9672 21.6712 14.2832 22.381 13.4438 22.381C12.6039 22.381 11.9203 21.6712 11.9203 20.799V15.1564H6.48676C5.64683 15.1564 4.96332 14.4466 4.96332 13.5744C4.96332 12.7022 5.64683 11.9924 6.48676 11.9924H11.9203V6.45526C11.9203 5.58303 12.6039 4.87323 13.4438 4.87323C14.2832 4.87323 14.9672 5.58303 14.9672 6.45526V11.9924H20.2993C21.1387 11.9924 21.8227 12.7022 21.8227 13.5744C21.8227 14.4466 21.1387 15.1564 20.2993 15.1564Z" fill="black"/>
</svg>
