<svg width="48" height="48" viewBox="0 0 48 48" fill="none" xmlns="http://www.w3.org/2000/svg">
<rect x="0.5" y="0.5" width="47" height="47" rx="11.5" fill="white"/>
<rect x="0.5" y="0.5" width="47" height="47" rx="11.5" stroke="#E9E9E9"/>
<g clip-path="url(#clip0_3_460)">
<path d="M27.7503 17.1254C27.7502 16.3922 28.008 15.6823 28.4784 15.1199C28.9489 14.5575 29.6021 14.1785 30.3238 14.0491C31.0455 13.9197 31.7897 14.0481 32.4262 14.412C33.0628 14.7759 33.5511 15.352 33.8058 16.0396C34.0604 16.7272 34.0652 17.4824 33.8193 18.1731C33.5734 18.8638 33.0924 19.4461 32.4606 19.8181C31.8287 20.19 31.0862 20.3279 30.3629 20.2077C29.6396 20.0875 28.9816 19.7168 28.5041 19.1604L20.1066 23.0604C20.2996 23.6722 20.2996 24.3286 20.1066 24.9404L28.5041 28.8404C29.0089 28.2533 29.7137 27.8745 30.4818 27.7775C31.25 27.6804 32.0268 27.8719 32.6618 28.315C33.2968 28.7581 33.7447 29.4211 33.9187 30.1755C34.0927 30.93 33.9804 31.7222 33.6036 32.3986C33.2268 33.075 32.6123 33.5874 31.8792 33.8366C31.1461 34.0857 30.3466 34.0539 29.6357 33.7472C28.9247 33.4404 28.353 32.8807 28.0312 32.1765C27.7095 31.4722 27.6606 30.6736 27.8941 29.9354L19.4966 26.0354C19.0809 26.5199 18.5268 26.8654 17.9088 27.0255C17.2908 27.1856 16.6387 27.1526 16.04 26.931C15.4413 26.7093 14.9249 26.3097 14.5602 25.7858C14.1955 25.2618 14 24.6388 14 24.0004C14 23.362 14.1955 22.739 14.5602 22.215C14.9249 21.6911 15.4413 21.2914 16.04 21.0698C16.6387 20.8482 17.2908 20.8152 17.9088 20.9753C18.5268 21.1354 19.0809 21.4809 19.4966 21.9654L27.8941 18.0654C27.7985 17.7612 27.75 17.4442 27.7503 17.1254Z" fill="#1F1F1F"/>
</g>
<defs>
<clipPath id="clip0_3_460">
<rect width="20" height="20" fill="white" transform="translate(14 14)"/>
</clipPath>
</defs>
</svg>
