<svg width="110" height="44" viewBox="0 0 110 44" fill="none" xmlns="http://www.w3.org/2000/svg">
<path d="M4.85846 33.9708C3.4076 32.9422 2.3327 31.6092 1.63904 29.9665C0.945378 28.3239 0.595901 26.55 0.595901 24.645C0.595901 20.8611 1.53313 17.0563 3.41819 13.2252C5.29795 9.39407 7.70193 6.24522 10.6354 3.76288C13.5636 1.28579 16.513 0.0419922 19.4729 0.0419922C20.8656 0.0419922 21.9828 0.367373 22.8247 1.00764C23.6667 1.65315 24.0903 2.66603 24.0903 4.04628C24.0903 5.22185 23.8149 6.57061 23.2695 8.0978C22.7241 9.62499 22.0252 10.9213 21.1833 11.9919C20.3413 13.0625 19.4888 13.5978 18.631 13.5978C17.8897 13.5978 17.2861 13.1412 16.8095 12.2333C17.9321 11 19.0229 9.53577 20.0713 7.83014C21.1197 6.12977 21.6492 4.74952 21.6492 3.69466C21.6492 2.55058 20.9821 1.97853 19.653 1.97853C17.5826 1.97853 15.3851 3.22758 13.0606 5.72042C10.736 8.21325 8.79802 11.2781 7.24655 14.9203C5.69509 18.5572 4.91671 21.9317 4.91671 25.0438C4.91671 27.3897 5.45151 29.3735 6.51583 30.9847C7.58014 32.5958 9.19515 33.404 11.3556 33.404C12.8964 33.404 14.4638 32.9737 16.0629 32.1078C17.662 31.2418 19.1288 30.0925 20.4578 28.6545C21.7922 27.2166 22.8565 25.6631 23.6561 23.989L24.8104 24.7395C23.1213 27.9093 21.0297 30.4966 18.5304 32.5066C16.0311 34.5166 13.283 35.5243 10.2965 35.5243C8.11495 35.5138 6.30932 34.9995 4.85846 33.9708Z" fill="#1F1F1F"/>
<path d="M23.236 31.9495C22.9395 31.0101 22.7912 29.824 22.7912 28.3861C22.7912 25.7463 23.6278 22.1618 25.3011 17.6275C26.9743 13.0932 28.8912 9.06788 31.0516 5.54641C33.212 2.02495 34.9752 0.261597 36.3361 0.261597C36.9291 0.261597 37.3951 0.586978 37.734 1.23249C38.0729 1.87801 38.2423 2.59699 38.2423 3.38945C38.2423 4.73821 37.7446 6.54355 36.7544 8.80023C35.7642 11.0569 34.4616 13.2401 32.8466 15.3341C31.2316 17.4333 29.5689 18.9815 27.8533 19.9786C26.8473 22.6184 26.3442 25.1113 26.3442 27.4624L26.3866 28.3861C26.4448 28.2968 26.5772 27.9767 26.789 27.4204C27.3821 25.8932 28.0016 24.5182 28.6529 23.2849C29.3042 22.0516 30.1991 20.9023 31.3375 19.8317C32.476 18.7611 33.7997 18.2258 35.3088 18.2258C36.6697 18.2258 37.6599 18.6614 38.2847 19.5221C38.9042 20.388 39.2166 21.4061 39.2166 22.5817C39.2166 23.2587 39.1266 23.8885 38.9519 24.471C38.7718 25.0588 38.5071 25.804 38.1523 26.7172C38.0941 26.8326 37.9829 27.1055 37.8187 27.5306C37.6546 27.9557 37.5381 28.3388 37.4639 28.6747C37.3898 29.0106 37.3527 29.315 37.3527 29.5774C37.3527 30.5168 37.7499 30.9839 38.5494 30.9839C39.2007 30.9839 39.9685 30.6585 40.8581 30.013C41.7477 29.3675 42.6214 28.5015 43.4792 27.4152C44.337 26.3288 45.0783 25.1585 45.6978 23.8937L46.4074 24.6442C45.3113 27.0478 43.9875 29.0001 42.436 30.4958C40.8846 31.9915 39.2166 32.742 37.4428 32.742C36.3467 32.742 35.4942 32.4586 34.8905 31.8865C34.2816 31.3145 33.9798 30.5745 33.9798 29.6613C33.9798 29.0736 34.1863 28.0187 34.5993 26.4915C35.0441 25.0535 35.2665 23.9829 35.2665 23.2797C35.2665 22.0464 34.7317 21.4324 33.6674 21.4324C32.603 21.4324 31.7082 21.9834 30.9827 23.0803C30.2573 24.1824 29.4366 25.804 28.5205 27.9452C27.7792 29.7663 27.1279 31.1203 26.5666 32.0177C26.0053 32.9152 25.354 33.3612 24.6127 33.3612C23.9932 33.356 23.5325 32.8889 23.236 31.9495ZM32.2959 12.9357C33.4185 11.2038 34.3398 9.52446 35.0494 7.89755C35.7589 6.27065 36.1137 5.10033 36.1137 4.39708C35.7589 4.54403 35.1235 5.25252 34.2075 6.53305C33.2914 7.80834 32.3277 9.409 31.3216 11.3298C30.3156 13.2506 29.4683 15.1924 28.7906 17.1604C30.0031 16.0741 31.1681 14.6676 32.2959 12.9357Z" fill="#1F1F1F"/>
<path d="M45.305 32.124C44.2672 31.1269 43.7482 29.8516 43.7482 28.2929C43.7482 26.5925 44.3254 24.7505 45.4797 22.7719C46.6341 20.7934 48.1114 19.135 49.917 17.7968C51.7227 16.4637 53.4965 15.7972 55.2439 15.7972C56.16 15.7972 56.9331 16.0229 57.5526 16.4795C58.1721 16.9361 58.4845 17.6918 58.4845 18.7467C58.4845 20.1531 57.9338 21.4809 56.843 22.73C55.7469 23.979 54.3332 24.9971 52.6017 25.7896C50.8702 26.582 49.1016 27.0806 47.296 27.2853C47.2377 27.5792 47.2059 27.9151 47.2059 28.2982C47.2059 29.0591 47.4178 29.8254 47.8519 30.5863C48.2809 31.3473 49.2075 31.7304 50.6266 31.7304C52.4322 31.7304 54.2749 31.0062 56.1547 29.5525C58.0344 28.0987 59.5488 26.2882 60.7032 24.1154L61.5927 24.8187C60.4066 27.4585 58.7122 29.5892 56.5094 31.2004C54.3014 32.8115 52.0192 33.6197 49.647 33.6197C47.7884 33.6197 46.3376 33.1212 45.305 32.124ZM51.3626 24.3779C52.6811 23.6431 53.7983 22.7405 54.7144 21.6698C55.6305 20.5992 56.0911 19.5496 56.0911 18.521C56.0911 18.2009 56.0329 17.9804 55.9111 17.8597C55.7946 17.7443 55.5987 17.6813 55.3339 17.6813C54.4761 17.6813 53.5336 18.0854 52.5169 18.8936C51.495 19.7018 50.5577 20.7199 49.6946 21.9532C48.8368 23.1865 48.2014 24.4198 47.7831 25.6479C48.858 25.5377 50.0494 25.1126 51.3626 24.3779Z" fill="#1F1F1F"/>
<path d="M65.1965 31.9713C64.5134 31.3993 64.1746 30.6278 64.1746 29.6622C64.1746 29.1059 64.2858 28.4971 64.5082 27.8358C64.7305 27.1746 65.0641 26.3769 65.5089 25.4375C65.8902 24.6188 66.1867 23.9208 66.3985 23.3487C66.605 22.7767 66.7109 22.2729 66.7109 21.832C66.7109 20.7194 65.9696 19.78 64.4923 19.0138C63.8992 20.4833 63.2109 21.9632 62.4272 23.4589C61.6435 24.9546 60.9393 26.2142 60.3197 27.2428L59.6525 25.9675C61.0134 23.5639 62.2154 20.9084 63.2479 18.0009C62.9514 17.707 62.8031 17.3134 62.8031 16.8149C62.8031 16.0539 63.0414 15.3349 63.5127 14.6579C63.9839 13.9809 64.4446 13.645 64.8894 13.645C65.1859 13.645 65.4295 13.8235 65.6201 14.1751C65.8107 14.5267 65.9061 14.8206 65.9061 15.0568C65.9061 15.1722 65.8425 15.4294 65.7048 15.8282C65.5725 16.2218 65.4772 16.5105 65.4189 16.6837C65.4507 16.8883 65.5672 17.0878 65.7737 17.2767C65.9802 17.4709 66.3667 17.7385 66.928 18.0901C67.9659 18.7671 68.7707 19.4179 69.3479 20.0477C69.925 20.6774 70.2163 21.5224 70.2163 22.5773C70.2163 23.2228 70.1051 23.8683 69.8827 24.5138C69.6603 25.1593 69.3267 25.936 68.8819 26.8439C68.2306 28.135 67.9023 29.0586 67.9023 29.6149C67.9023 30.2919 68.273 30.6278 69.0143 30.6278C69.9039 30.6278 70.8729 30.2762 71.9213 29.5729C72.9697 28.8697 73.9334 28.009 74.8071 26.9961C75.6808 25.9833 76.3268 25.0386 76.7398 24.1569L77.8042 24.9494C77.2111 26.2667 76.3851 27.5314 75.3155 28.7333C74.2511 29.9351 73.0597 30.9217 71.7413 31.6827C70.4228 32.4436 69.1308 32.8268 67.8547 32.8268C66.7692 32.8268 65.8796 32.5434 65.1965 31.9713Z" fill="#1F1F1F"/>
<path d="M75.7667 43.2811C75.1737 42.7983 74.8772 42.0846 74.8772 41.1452C74.8772 40.0011 75.3166 38.9619 76.185 38.0225C77.0587 37.0831 78.0701 36.2907 79.2244 35.6452C80.3788 34.9996 81.872 34.2492 83.7094 33.399C84.2124 32.1394 84.922 29.8513 85.838 26.5345C84.7737 28.0302 83.7306 29.2058 82.7086 30.056C81.6867 30.9061 80.6012 31.3312 79.4468 31.3312C78.4672 31.3312 77.5935 31.0373 76.8258 30.4496C76.058 29.8618 75.6714 28.9381 75.6714 27.6786C75.6714 26.6814 75.9097 25.4114 76.381 23.8737C76.8522 22.3308 77.4188 20.982 78.0701 19.8222C78.7214 18.6624 79.2827 18.0851 79.7592 18.0851C80.0558 18.0851 80.5006 18.2373 81.0936 18.5469C81.6867 18.8566 82.0414 19.1872 82.1579 19.5388C81.5966 20.2998 80.9824 21.5803 80.3152 23.3647C79.648 25.1542 79.3145 26.5607 79.3145 27.5894C79.3145 28.6757 79.7434 29.2163 80.6012 29.2163C81.4907 29.2163 82.4491 28.702 83.487 27.6733C84.5248 26.6447 85.515 25.3852 86.4628 23.8895C86.5211 23.6848 86.6111 23.202 86.7276 22.4357C86.8441 21.6748 87.1141 21.003 87.5272 20.431C87.9402 19.8589 88.5332 19.5755 89.301 19.5755C89.4175 19.5755 89.8941 19.6333 90.7201 19.754C90.6883 20.4887 90.3442 22.0841 89.677 24.5507C89.0098 27.0173 88.2314 29.4209 87.3471 31.7668C88.798 31.179 90.1641 30.2869 91.4561 29.0798C92.7428 27.878 93.7595 26.2931 94.4955 24.3251L95.2527 24.9391C94.6332 26.9648 93.5583 28.6652 92.0333 30.0455C90.5083 31.4257 88.7556 32.554 86.77 33.4357C85.3773 36.6948 83.9635 39.2663 82.5286 41.1609C81.0936 43.0555 79.5474 44.0001 77.8901 44.0001C77.0693 44.0054 76.3598 43.7639 75.7667 43.2811ZM79.8969 40.5101C80.903 39.2611 81.8932 37.5397 82.8728 35.3408C81.1571 36.191 79.6851 37.1304 78.4566 38.159C77.2282 39.1876 76.6139 40.1848 76.6139 41.1504C76.6139 41.4758 76.6828 41.7592 76.8152 42.0058C76.9475 42.2577 77.1646 42.3785 77.4612 42.3785C78.0754 42.3785 78.8908 41.7539 79.8969 40.5101Z" fill="#1F1F1F"/>
<path d="M94.5049 31.7299C93.9118 30.8797 93.6153 29.7514 93.6153 28.3396C93.6153 25.6421 94.5419 22.0314 96.3899 17.5128C98.2379 12.9942 100.319 8.94798 102.628 5.36879C104.936 1.7896 106.636 0 107.732 0C108.235 0 108.664 0.388358 109.019 1.16507C109.374 1.94179 109.564 2.729 109.596 3.52146C109.596 4.87022 109.051 6.8435 107.954 9.4413C106.858 12.0391 105.386 14.6736 103.538 17.3397C101.685 20.0109 99.7099 22.1679 97.6078 23.8105C97.2795 25.6316 97.1206 27.0066 97.1206 27.946C97.1206 28.9747 97.2901 29.7356 97.629 30.2342C97.9678 30.7328 98.4338 30.9847 99.0269 30.9847C100.065 30.9847 101.166 30.3024 102.336 28.9379C103.507 27.5734 104.55 25.9255 105.466 23.989L106.53 24.561C105.227 27.2323 103.792 29.3053 102.225 30.7852C100.658 32.2652 99.0269 33.0104 97.343 33.0104C96.0404 33.0052 95.0926 32.5801 94.5049 31.7299ZM102.919 15.0935C104.322 12.8053 105.45 10.6326 106.292 8.58061C107.134 6.52861 107.557 5.00142 107.557 4.00429C107.171 4.00429 106.398 4.90171 105.227 6.6913C104.057 8.4809 102.829 10.7061 101.542 13.3564C100.255 16.0119 99.2122 18.5887 98.4126 21.0815C100.006 19.3759 101.51 17.3816 102.919 15.0935Z" fill="#1F1F1F"/>
</svg>
