<svg width="129" height="36" viewBox="0 0 129 36" fill="none" xmlns="http://www.w3.org/2000/svg">
<path d="M14.6798 29.6637C13.6884 31.1225 12.5997 32.2856 11.409 33.166C10.2182 34.04 9.04694 34.4834 7.89995 34.4834C6.30097 34.4834 5.11024 33.6609 4.3229 32.0093C3.53556 30.3578 3.14189 28.3142 3.14189 25.8722C3.14189 22.6012 3.74454 19.0347 4.94499 15.166C6.14544 11.2974 7.6375 8.03287 9.4163 5.37239C11.1951 2.71191 12.8573 1.38167 14.4076 1.38167C14.9714 1.38167 15.3845 1.5616 15.6567 1.91505C15.9289 2.27492 16.0601 2.76332 16.0601 3.38667C16.0601 4.5434 15.6664 6.02144 14.8791 7.80152C14.0917 9.58803 13.2801 11.1046 12.449 12.3513C12.6969 13.0389 13.0468 13.3795 13.4939 13.3795C14.0772 13.3795 14.675 12.8461 15.2825 11.773C15.89 10.6998 16.3954 9.40809 16.7988 7.89149C17.2022 6.37489 17.4063 5.03822 17.4063 3.87506C17.4063 2.5641 17.1293 1.60016 16.5801 0.976811C16.0309 0.353462 15.2679 0.0385742 14.3007 0.0385742C12.2109 0.0385742 10.0821 1.31098 7.92425 3.85578C5.76635 6.40059 3.97783 9.62658 2.55867 13.5338C1.1541 17.4474 0.444519 21.3096 0.444519 25.1139C0.444519 27.0482 0.672945 28.8412 1.13466 30.4927C1.59637 32.1443 2.32539 33.4745 3.32657 34.4834C4.32776 35.4924 5.58167 36 7.08831 36C9.22676 36 11.2 35.0104 13.0079 33.0311C14.8208 31.0518 16.3323 28.4877 17.5473 25.3388L17.0759 24.8954C16.4683 26.6177 15.6713 28.2114 14.6798 29.6637Z" fill="#1F1F1F"/>
<path d="M35.5645 30.0878C34.5731 31.3217 33.7517 31.9386 33.1004 31.9386C32.7165 31.9386 32.4297 31.7394 32.2402 31.3345C32.0507 30.9361 31.9535 30.4799 31.9535 29.9722C31.9535 29.4067 32.0652 28.7897 32.2888 28.1214C32.5124 27.4531 32.8186 26.6883 33.1976 25.8208C33.2414 25.7308 33.3726 25.4288 33.5865 24.9083C33.8003 24.3877 33.9072 24.0086 33.9072 23.7708C33.9072 23.4752 33.7566 23.231 33.4504 23.0318C33.149 22.839 32.8477 22.7105 32.5561 22.6526C31.1613 25.3581 29.8587 27.6587 28.6437 29.5416C27.4287 31.4309 26.3692 32.3756 25.4701 32.3756C24.8625 32.3756 24.5612 31.7972 24.5612 30.6341C24.5612 29.1753 24.9257 27.4402 25.6596 25.4159C26.3886 23.3917 27.3023 21.6566 28.391 20.1978C29.4797 18.739 30.5197 18.0129 31.5112 18.0129C32.075 18.0129 32.4881 18.2442 32.7602 18.7069C33.0324 19.1696 33.1636 19.7672 33.1636 20.5127C33.1636 21.0204 33.1053 21.5409 32.9935 22.0743C33.5087 22.0743 33.9169 21.9265 34.2086 21.6309C34.5002 21.3353 34.646 20.8404 34.646 20.1592C34.646 19.176 34.3544 18.3727 33.7711 17.7494C33.1879 17.126 32.454 16.8112 31.5792 16.8112C30.1844 16.8112 28.7555 17.5695 27.2926 19.0861C25.8297 20.6027 24.6195 22.447 23.6669 24.6191C22.7095 26.7912 22.2332 28.7512 22.2332 30.5056C22.2332 31.6944 22.4616 32.607 22.9234 33.2496C23.3851 33.8858 23.9877 34.2071 24.7265 34.2071C25.5138 34.2071 26.306 33.7894 27.1031 32.9604C27.9001 32.125 28.809 30.8204 29.8199 29.0339C29.7518 29.5095 29.7178 29.94 29.7178 30.3256C29.7178 31.1867 29.9268 31.9258 30.3399 32.5363C30.7579 33.1468 31.3557 33.4488 32.143 33.4488C32.9303 33.4488 33.7517 33.1082 34.6071 32.4206C35.4625 31.7394 36.2595 30.7755 37.0031 29.5416C37.7467 28.3078 38.3542 26.9004 38.8257 25.326L38.4903 24.8826C37.5329 27.1253 36.556 28.854 35.5645 30.0878Z" fill="#1F1F1F"/>
<path d="M55.6072 27.9479C54.9559 29.0018 54.2415 29.8886 53.4638 30.6019C52.6862 31.3152 51.9621 31.6751 51.2865 31.6751C50.6109 31.6751 50.2756 31.2317 50.2756 30.3384C50.2756 29.7151 50.5235 28.6869 51.0192 27.2603C51.3351 26.2192 51.5684 25.3774 51.7288 24.7411C51.8843 24.1049 51.9669 23.4559 51.9669 22.8004C51.9669 21.7915 51.7677 20.9625 51.3788 20.3263C50.9852 19.6837 50.4408 19.041 49.741 18.3856C49.3133 18 49.0022 17.6787 48.8127 17.428C48.6232 17.1774 48.526 16.9011 48.526 16.6055C48.5503 16.4577 48.6134 16.1749 48.7301 15.7572C48.8419 15.3395 48.9002 15.076 48.9002 14.9539C48.9002 14.2406 48.7447 13.8807 48.4288 13.8807C48.2927 13.8807 48.108 14.0157 47.8698 14.2792C47.6317 14.5491 47.4324 14.9218 47.2623 15.3973C47.0922 15.8729 47.0096 16.3806 47.0096 16.9139C47.0096 17.3316 47.1214 17.6851 47.3449 17.9871C46.6013 20.8725 45.6925 23.7001 44.6136 26.4634L44.9149 27.2217C45.2988 26.3606 45.7703 25.1332 46.334 23.5394C46.8978 21.9521 47.4227 20.3199 47.9184 18.6555C48.0302 18.7454 48.2441 18.9318 48.56 19.2145C48.8759 19.4973 49.1626 19.8572 49.4202 20.2877C49.6778 20.7183 49.809 21.3095 49.809 22.0485C49.809 22.5562 49.7361 23.096 49.5903 23.6744C49.4445 24.2528 49.2258 25.0368 48.9342 26.0136C48.2829 27.9157 47.9573 29.3745 47.9573 30.3834C47.9573 31.2445 48.176 31.945 48.6134 32.4784C49.0508 33.0118 49.6535 33.2817 50.4165 33.2817C51.7677 33.2817 53.1042 32.4912 54.431 30.9168C55.7578 29.3424 56.7687 27.5237 57.4686 25.4737L57.0312 25.0303C56.7298 25.9172 56.2584 26.894 55.6072 27.9479Z" fill="#1F1F1F"/>
<path d="M74.4305 27.4597C73.7355 27.9802 73.06 28.2373 72.4087 28.2373C71.9567 28.2373 71.5339 28.0895 71.1256 27.7939C71.8012 26.4572 72.3455 25.082 72.7635 23.6682C73.1815 22.2544 73.3856 20.982 73.3856 19.8574C73.3856 18.7842 73.2106 17.9488 72.8607 17.3383C72.5108 16.7278 71.9081 16.4258 71.0576 16.4258C70.0467 16.4258 69.2399 16.9784 68.647 18.0773C68.0492 19.1762 67.7527 20.5 67.7527 22.0488C67.7527 23.2376 67.9277 24.3815 68.2776 25.4868C68.6276 26.5857 69.1136 27.479 69.7454 28.1666C69.1136 29.2398 68.472 30.1009 67.8208 30.7564C67.1695 31.4119 66.6057 31.7396 66.1343 31.7396C65.3227 31.7396 64.9193 30.8913 64.9193 29.1948C64.9193 28.4815 65.0602 27.5497 65.3421 26.4058C65.624 25.2619 65.9545 24.1823 66.3384 23.1734C66.7224 22.1644 67.048 21.509 67.3153 21.2134C67.0431 21.0656 66.8099 20.9884 66.6057 20.9884C65.9982 20.9884 65.3907 21.4319 64.7832 22.3251C64.1757 23.2184 63.6799 24.3301 63.3009 25.6732C62.9169 27.0099 62.7274 28.2887 62.7274 29.5097C62.7274 30.7307 62.9412 31.7139 63.3689 32.4529C63.7966 33.1984 64.4721 33.5711 65.3956 33.5711C66.2072 33.5711 67.0674 33.1405 67.9763 32.2794C68.8851 31.4183 69.7454 30.2873 70.557 28.8863C71.0284 29.1819 71.5679 29.3297 72.1754 29.3297C73.0065 29.3297 73.8182 29.0149 74.6055 28.3915C75.3928 27.7682 76.0004 26.8042 76.428 25.4933L76.0247 25.0498C75.6553 26.1295 75.1304 26.9392 74.4305 27.4597ZM70.348 26.9906C69.9641 26.3929 69.6773 25.6732 69.4878 24.8249C69.2982 23.9767 69.201 23.0898 69.201 22.1709C69.201 21.3355 69.308 20.5707 69.5218 19.8703C69.7357 19.1698 70.003 18.6236 70.3335 18.2187C70.6591 17.8203 70.9798 17.6146 71.2958 17.6146C71.5874 17.6146 71.8304 17.8203 72.0199 18.238C72.2095 18.6557 72.3067 19.279 72.3067 20.1145C72.3067 21.1234 72.1268 22.2351 71.7672 23.4369C71.4075 24.645 70.9361 25.8274 70.348 26.9906Z" fill="#1F1F1F"/>
<path d="M92.7186 0C91.9556 0 90.7114 1.84434 88.9909 5.53303C87.2704 9.22171 85.7103 13.3602 84.3204 17.955C82.9255 22.5498 82.2305 26.1871 82.2305 28.8604C82.2305 30.2613 82.4492 31.3731 82.8866 32.2085C83.324 33.0439 84.0044 33.4552 84.9279 33.4552C87.2218 33.4552 89.336 30.7176 91.2703 25.2488L90.7649 24.8954C90.0893 26.8554 89.3214 28.5391 88.4515 29.9336C87.5864 31.3345 86.7358 32.0286 85.9048 32.0286C84.9133 32.0286 84.4224 30.8847 84.4224 28.5905C84.4224 27.3117 84.5682 25.8079 84.8598 24.0857C86.4102 22.3892 87.8731 20.1785 89.2437 17.4409C90.6142 14.7033 91.7223 12.0043 92.568 9.34381C93.4136 6.68333 93.8316 4.66548 93.8316 3.29668C93.8316 2.55123 93.7247 1.81864 93.5108 1.08604C93.297 0.366298 93.0297 0 92.7186 0ZM91.6689 9.25384C90.9253 11.5287 89.963 13.9065 88.7868 16.3934C87.6058 18.874 86.3956 20.9368 85.1612 22.5691C85.7444 19.8893 86.556 17.081 87.5912 14.1378C88.6264 11.1946 89.6325 8.70118 90.6094 6.66405C91.5862 4.62692 92.2326 3.60514 92.5485 3.60514C92.7041 3.60514 92.7867 3.84291 92.7867 4.31846C92.7867 5.34024 92.4125 6.97894 91.6689 9.25384Z" fill="#1F1F1F"/>
<path d="M102.318 12.467C102.575 12.7176 102.906 12.8461 103.314 12.8461C103.854 12.8461 104.354 12.5891 104.816 12.0685C105.278 11.548 105.506 11.0082 105.506 10.4427C105.506 9.52373 105.137 9.06104 104.393 9.06104C103.829 9.06104 103.28 9.29881 102.741 9.77435C102.201 10.2499 101.929 10.7833 101.929 11.3809C101.929 11.85 102.055 12.2163 102.318 12.467Z" fill="#1F1F1F"/>
<path d="M100.407 31.7202C99.8241 31.7202 99.4013 31.5339 99.1437 31.1612C98.8861 30.7884 98.7549 30.0815 98.7549 29.0405C98.7549 27.8838 98.9736 26.6563 99.411 25.3582C99.8484 24.0665 100.441 22.6014 101.18 20.9627C101.899 19.3882 102.259 18.3921 102.259 17.9744C102.259 17.6788 102.186 17.4411 102.04 17.2611C101.895 17.0812 101.72 16.9912 101.515 16.9912C100.796 16.9912 100.057 17.7624 99.3041 19.3111C98.5508 20.8598 97.919 22.6592 97.4135 24.7092C96.9081 26.7592 96.6553 28.3657 96.6553 29.5289C96.6553 30.6278 96.8789 31.5275 97.3309 32.2279C97.7829 32.9284 98.4196 33.2754 99.2555 33.2754C100.607 33.2754 101.895 32.5749 103.119 31.1804C104.344 29.7795 105.272 27.8323 105.904 25.3389L105.603 24.8955C103.897 29.4453 102.162 31.7202 100.407 31.7202Z" fill="#1F1F1F"/>
<path d="M125.729 29.8436C124.907 31.1803 124.115 31.8486 123.352 31.8486C122.677 31.8486 122.341 31.2831 122.341 30.1521C122.341 29.6766 122.4 29.201 122.511 28.7255C122.623 28.2499 122.784 27.6844 122.983 27.0289C123.231 26.2578 123.415 25.5702 123.542 24.979C123.663 24.3813 123.726 23.758 123.726 23.1025C123.726 22.0036 123.517 21.0589 123.104 20.2685C122.686 19.4781 122.064 19.0861 121.233 19.0861C120.062 19.0861 118.871 19.8444 117.656 21.361C116.441 22.8776 115.294 24.7348 114.215 26.939C114.531 25.6923 114.789 24.5098 114.993 23.3917C115.197 22.2735 115.294 21.4959 115.294 21.0525C115.294 20.2813 114.993 19.8958 114.385 19.8958C114.094 19.8958 113.802 19.9922 113.506 20.185C113.214 20.3777 112.99 20.5962 112.83 20.834C112.806 22.055 112.616 23.4431 112.257 25.0047C111.897 26.5662 111.435 28.3013 110.871 30.2035C110.58 31.1289 110.434 31.6623 110.434 31.8101C110.614 32.1378 110.862 32.382 111.178 32.5491C111.493 32.7098 111.839 32.7933 112.222 32.7933C113.146 30.7433 113.972 28.989 114.701 27.5302C115.43 26.0714 116.266 24.7476 117.199 23.5587C118.132 22.3699 119.027 21.7722 119.882 21.7722C120.781 21.7722 121.233 22.4984 121.233 23.9572C121.233 24.4327 121.185 24.9661 121.082 25.5637C120.98 26.1614 120.864 26.7205 120.728 27.2603C120.616 27.768 120.509 28.2821 120.407 28.7962C120.305 29.3167 120.256 29.773 120.256 30.1585C120.256 31.0197 120.46 31.7137 120.864 32.2342C121.267 32.7548 121.855 33.0118 122.618 33.0118C124.888 33.0118 126.837 30.4991 128.455 25.4738L128.086 24.8954C127.333 26.8554 126.55 28.507 125.729 29.8436Z" fill="#1F1F1F"/>
</svg>
