<svg width="126" height="40" viewBox="0 0 126 40" fill="none" xmlns="http://www.w3.org/2000/svg">
<path d="M0.11169 31.5963C0.11169 30.9048 0.0722698 30.0421 0 29.0082C0.926368 29.0411 2.49002 29.0543 4.69097 29.0543C6.89191 29.0543 8.45557 29.0411 9.3688 29.0082C9.29653 30.0355 9.25711 30.8982 9.25711 31.5963C9.25711 32.0309 9.27682 32.4194 9.30967 32.7553H8.96146C8.79064 31.9058 8.58697 31.2406 8.34388 30.7467C8.10079 30.2528 7.81171 29.8972 7.47664 29.6865C7.135 29.4692 6.72766 29.3638 6.24148 29.3638H5.89328V38.0566C5.89328 38.4781 5.93927 38.7876 6.02468 38.9785C6.11009 39.1695 6.26119 39.3012 6.48457 39.3737C6.70138 39.4461 7.04959 39.479 7.51606 39.4856V39.7886C6.24148 39.7556 5.28227 39.7425 4.63184 39.7425C3.99455 39.7425 3.06818 39.7556 1.85274 39.7886V39.4856C2.32577 39.479 2.67398 39.4461 2.89736 39.3737C3.11417 39.3012 3.27185 39.1761 3.35069 38.9785C3.4361 38.7876 3.47552 38.4781 3.47552 38.0566V29.3638H3.14045C2.65427 29.3638 2.24036 29.4692 1.89873 29.6865C1.55709 29.8972 1.26801 30.2528 1.02492 30.7467C0.781828 31.2406 0.578159 31.9124 0.400769 32.7619H0.0591299C0.0919798 32.4129 0.11169 32.0309 0.11169 31.5963Z" fill="#1F1F1F"/>
<path d="M26.188 37.4717C26.188 38.4003 26.2208 39.1708 26.2931 39.7832C25.6033 39.7503 24.4469 39.7371 22.8176 39.7371C20.6166 39.7371 18.9676 39.7503 17.877 39.7832V39.4803C18.212 39.4671 18.4551 39.4276 18.6128 39.3617C18.7705 39.2959 18.869 39.1773 18.9282 39.0061C18.9873 38.8349 19.0136 38.5583 19.0136 38.1763V30.6228C19.0136 30.2409 18.9873 29.9643 18.9282 29.7931C18.869 29.6219 18.7639 29.5033 18.6128 29.4375C18.4617 29.3716 18.212 29.3321 17.877 29.3189V29.016C18.9676 29.0489 20.6166 29.0621 22.8176 29.0621C24.3024 29.0621 25.3602 29.0489 25.9909 29.016C25.9252 29.8523 25.8858 30.6031 25.8858 31.2682C25.8858 31.716 25.8989 32.0651 25.9318 32.3021H25.5835C25.4784 31.5646 25.3207 30.985 25.1105 30.557C24.9003 30.1289 24.6309 29.826 24.3024 29.6416C23.9739 29.4572 23.5731 29.365 23.0935 29.365H22.4694C22.154 29.365 21.9241 29.3914 21.7861 29.444C21.6416 29.4967 21.5496 29.5955 21.497 29.7404C21.4445 29.8853 21.4247 30.1223 21.4247 30.4516V34.2185H21.9044C22.4497 34.2185 22.857 34.0209 23.1329 33.6258C23.4089 33.2307 23.5994 32.7565 23.7111 32.2165H24.0593C24.0265 32.717 24.0068 33.1977 24.0068 33.6521L24.0133 34.3831C24.0133 34.8968 24.0462 35.6212 24.1053 36.5432H23.7571C23.5534 35.1997 22.9358 34.528 21.9044 34.528H21.4182V38.3607C21.4182 38.69 21.4445 38.9271 21.4904 39.072C21.543 39.2169 21.635 39.3156 21.7795 39.3683C21.9175 39.421 22.1474 39.4473 22.4628 39.4473H23.2118C23.9213 39.4473 24.4995 39.1971 24.9397 38.7032C25.3799 38.2093 25.6952 37.3729 25.8792 36.2073H26.2274C26.2011 36.5234 26.188 36.9515 26.188 37.4717Z" fill="#1F1F1F"/>
<path d="M44.6167 39.1627C44.7087 39.2615 44.8007 39.3405 44.8926 39.38C44.9846 39.4261 45.1029 39.4524 45.2408 39.459V39.7817C44.1765 39.7422 43.4801 39.7224 43.1582 39.7224C42.7902 39.7224 41.9756 39.7422 40.7141 39.7817V39.459C41.0689 39.459 41.3251 39.4393 41.4828 39.4063C41.6405 39.3668 41.7193 39.301 41.7193 39.2088C41.7193 39.1363 41.6799 39.0507 41.6076 38.9388L39.0519 35.1785L37.843 36.8446C37.3766 37.4702 37.1466 38.0036 37.1466 38.4449C37.1466 38.7544 37.2583 38.9981 37.4883 39.1759C37.7182 39.3537 38.0336 39.4524 38.4343 39.4788V39.7817C37.8562 39.7488 37.0547 39.7356 36.0429 39.7356C35.4319 39.7356 34.9654 39.7488 34.6435 39.7817V39.4788C35.353 39.2483 36.0823 38.6293 36.8444 37.6217L38.8614 34.8953L35.583 30.0748C35.4384 29.864 35.3267 29.7126 35.2413 29.6138C35.1559 29.515 35.0639 29.4426 34.972 29.3965C34.88 29.3504 34.7617 29.324 34.6172 29.3174V28.9948C35.7407 29.0343 36.4699 29.054 36.7919 29.054C37.6788 29.054 38.4475 29.0343 39.1111 28.9948V29.3174C38.776 29.3174 38.5329 29.3372 38.3752 29.3833C38.2175 29.4294 38.1453 29.5018 38.1453 29.6072C38.1453 29.6862 38.1847 29.785 38.2635 29.897L40.5236 33.2029L41.6405 31.6882C42.1201 31.0692 42.3566 30.5621 42.3566 30.1604C42.3566 29.9101 42.2581 29.7126 42.0741 29.5677C41.8836 29.4294 41.6076 29.3438 41.2463 29.3174V29.0145C41.8245 29.0474 42.4617 29.0606 43.1582 29.0606C43.7692 29.0606 44.2356 29.0474 44.5576 29.0145V29.3174C44.2356 29.4096 43.9137 29.6006 43.5852 29.8838C43.2567 30.167 42.9414 30.5094 42.6457 30.9111L40.7141 33.486L44.2751 38.7017C44.4065 38.9059 44.5247 39.0573 44.6167 39.1627Z" fill="#1F1F1F"/>
<path d="M53.1254 31.5963C53.1254 30.9048 53.0859 30.0421 53.0137 29.0082C53.94 29.0411 55.5037 29.0543 57.7046 29.0543C59.9056 29.0543 61.4692 29.0411 62.3825 29.0082C62.3102 30.0355 62.2708 30.8982 62.2708 31.5963C62.2708 32.0309 62.2905 32.4194 62.3233 32.7553H61.9751C61.8043 31.9058 61.6006 31.2406 61.3576 30.7467C61.1145 30.2528 60.8254 29.8972 60.4903 29.6865C60.1487 29.4692 59.7413 29.3638 59.2552 29.3638H58.9069V38.0566C58.9069 38.4781 58.9529 38.7876 59.0383 38.9785C59.1238 39.1695 59.2749 39.3012 59.4982 39.3737C59.7151 39.4461 60.0633 39.479 60.5297 39.4856V39.7886C59.2552 39.7556 58.2959 39.7425 57.6455 39.7425C57.0082 39.7425 56.0819 39.7556 54.8664 39.7886V39.4856C55.3394 39.479 55.6877 39.4461 55.911 39.3737C56.1278 39.3012 56.2855 39.1761 56.3644 38.9785C56.4498 38.7876 56.4892 38.4781 56.4892 38.0566V29.3638H56.1541C55.6679 29.3638 55.254 29.4692 54.9124 29.6865C54.5708 29.8972 54.2817 30.2528 54.0386 30.7467C53.7955 31.2406 53.5918 31.9124 53.4144 32.7619H53.0662C53.1122 32.4129 53.1254 32.0309 53.1254 31.5963Z" fill="#1F1F1F"/>
<path d="M74.8326 29.4309C74.6815 29.4967 74.5764 29.6153 74.5238 29.7865C74.4712 29.9577 74.445 30.2343 74.445 30.6163V38.1632C74.445 38.5451 74.4712 38.8217 74.5238 38.9929C74.5764 39.1642 74.6815 39.2827 74.8326 39.3486C74.9837 39.4144 75.2334 39.4539 75.575 39.4671V39.77C75.0363 39.7371 74.2742 39.7239 73.2821 39.7239C72.198 39.7239 71.4031 39.7371 70.8906 39.77V39.4671C71.2257 39.4539 71.4688 39.4144 71.6265 39.3486C71.7776 39.2827 71.8827 39.1642 71.9418 38.9929C72.0009 38.8217 72.0272 38.5451 72.0272 38.1632V30.6228C72.0272 30.2409 72.0009 29.9643 71.9418 29.7931C71.8827 29.6219 71.7776 29.5033 71.6265 29.4375C71.4753 29.3716 71.2257 29.3321 70.8906 29.3189V29.016C71.4031 29.0489 72.198 29.0621 73.2821 29.0621C74.2676 29.0621 75.0363 29.0489 75.575 29.016V29.3189C75.2334 29.3255 74.9837 29.3716 74.8326 29.4309Z" fill="#1F1F1F"/>
<path d="M88.1682 29.4309C88.0039 29.4967 87.8857 29.6153 87.8266 29.7865C87.7609 29.9577 87.7346 30.2343 87.7346 30.6163V38.341C87.7346 38.6703 87.7609 38.9073 87.8068 39.0522C87.8528 39.1971 87.9448 39.2959 88.0762 39.3486C88.2076 39.4012 88.4113 39.4276 88.6938 39.4276H89.4362C89.8961 39.4276 90.3166 39.2893 90.6976 39.0061C91.0787 38.7229 91.4006 38.3278 91.6634 37.8141C91.9262 37.3005 92.1036 36.7078 92.2022 36.0361H92.5504C92.5175 36.3851 92.5044 36.8263 92.5044 37.3729C92.5044 38.3476 92.5372 39.151 92.6095 39.7832C91.9197 39.7503 90.7633 39.7371 89.134 39.7371C86.933 39.7371 85.284 39.7503 84.1934 39.7832V39.4803C84.5284 39.4671 84.7715 39.4276 84.9292 39.3617C85.0869 39.2959 85.1854 39.1773 85.2446 39.0061C85.3037 38.8349 85.33 38.5583 85.33 38.1763V30.6228C85.33 30.2409 85.3037 29.9643 85.2446 29.7931C85.1854 29.6219 85.0803 29.5033 84.9292 29.4375C84.7781 29.3716 84.5284 29.3321 84.1934 29.3189V29.016C84.7058 29.0489 85.5008 29.0621 86.5848 29.0621C87.6097 29.0621 88.4113 29.0489 88.9697 29.016V29.3189C88.5952 29.3255 88.3324 29.3716 88.1682 29.4309Z" fill="#1F1F1F"/>
<path d="M109.364 37.4717C109.364 38.4003 109.397 39.1708 109.469 39.7832C108.779 39.7503 107.623 39.7371 105.993 39.7371C103.792 39.7371 102.143 39.7503 101.053 39.7832V39.4803C101.388 39.4671 101.631 39.4276 101.789 39.3617C101.94 39.2959 102.045 39.1773 102.104 39.0061C102.163 38.8349 102.189 38.5583 102.189 38.1763V30.6228C102.189 30.2409 102.163 29.9643 102.104 29.7931C102.045 29.6219 101.94 29.5033 101.789 29.4375C101.637 29.3716 101.388 29.3321 101.053 29.3189V29.016C102.143 29.0489 103.792 29.0621 105.993 29.0621C107.478 29.0621 108.536 29.0489 109.167 29.016C109.101 29.8523 109.062 30.6031 109.062 31.2682C109.062 31.716 109.075 32.0651 109.108 32.3021H108.759C108.654 31.5646 108.497 30.985 108.286 30.557C108.076 30.1289 107.807 29.826 107.478 29.6416C107.15 29.4572 106.749 29.365 106.269 29.365H105.645C105.33 29.365 105.1 29.3914 104.962 29.444C104.817 29.4967 104.725 29.5955 104.673 29.7404C104.62 29.8853 104.601 30.1223 104.601 30.4516V34.2185H105.08C105.625 34.2185 106.033 34.0209 106.309 33.6258C106.585 33.2307 106.775 32.7565 106.887 32.2165H107.235C107.202 32.717 107.183 33.1977 107.183 33.6521L107.189 34.3831C107.189 34.8968 107.222 35.6212 107.281 36.5432H106.933C106.729 35.1997 106.112 34.528 105.08 34.528H104.601V38.3607C104.601 38.69 104.627 38.9271 104.673 39.072C104.725 39.2169 104.817 39.3156 104.962 39.3683C105.1 39.421 105.33 39.4473 105.645 39.4473H106.394C107.104 39.4473 107.682 39.1971 108.122 38.7032C108.562 38.2093 108.878 37.3729 109.062 36.2073H109.41C109.377 36.5234 109.364 36.9515 109.364 37.4717Z" fill="#1F1F1F"/>
<path d="M119.739 38.5381C120.173 39.2428 120.849 39.5984 121.749 39.5984C122.104 39.5984 122.426 39.5325 122.709 39.4074C122.991 39.2823 123.221 39.0913 123.385 38.8345C123.549 38.5776 123.635 38.2681 123.635 37.8993C123.635 37.5042 123.543 37.1486 123.359 36.8325C123.175 36.5164 122.925 36.2332 122.61 35.9698C122.295 35.713 121.881 35.41 121.355 35.0676C120.744 34.6725 120.258 34.33 119.897 34.0337C119.542 33.7439 119.24 33.3949 119.01 32.9932C118.773 32.5914 118.661 32.1239 118.661 31.597C118.661 30.9846 118.819 30.4644 119.128 30.0495C119.437 29.6346 119.851 29.3185 120.363 29.1143C120.875 28.9102 121.441 28.8114 122.058 28.8114C122.426 28.8114 122.741 28.8377 123.011 28.8904C123.28 28.9431 123.503 29.0156 123.687 29.0946C123.865 29.1736 124.062 29.279 124.279 29.4041C124.522 29.549 124.693 29.6214 124.791 29.6214C124.883 29.6214 124.955 29.5687 125.008 29.4634C125.061 29.358 125.1 29.1868 125.126 28.9563H125.474C125.422 29.6346 125.402 30.7936 125.402 32.4268H125.054C125.021 31.8802 124.896 31.3534 124.686 30.8595C124.476 30.3656 124.18 29.9639 123.806 29.6543C123.431 29.3448 122.984 29.1868 122.479 29.1868C122.157 29.1868 121.868 29.246 121.611 29.3712C121.355 29.4963 121.158 29.6741 121.02 29.9112C120.882 30.1482 120.81 30.4182 120.81 30.7344C120.81 31.2414 120.961 31.6497 121.263 31.9724C121.565 32.2951 121.96 32.6178 122.439 32.9471C122.925 33.2763 123.247 33.5002 123.418 33.6122C124.009 34.0073 124.482 34.3498 124.824 34.6461C125.172 34.9359 125.455 35.2783 125.672 35.6734C125.888 36.0686 126 36.5164 126 37.03C126 37.682 125.829 38.2286 125.494 38.6698C125.159 39.1176 124.706 39.4469 124.141 39.6708C123.569 39.8881 122.938 40.0001 122.235 40.0001C121.664 40.0001 121.197 39.9474 120.823 39.8486C120.448 39.7498 120.107 39.6115 119.791 39.4337C119.575 39.2889 119.404 39.2164 119.279 39.2164C119.187 39.2164 119.115 39.2691 119.062 39.3745C119.01 39.4798 118.97 39.6511 118.944 39.8815H118.596C118.635 39.2493 118.655 37.8796 118.655 35.7722H119.003C119.049 36.9115 119.299 37.8335 119.739 38.5381Z" fill="#1F1F1F"/>
<path d="M7.31091 16.0735C7.31091 16.7913 7.38318 17.3182 7.53429 17.6474C7.6854 17.9767 7.95477 18.2006 8.3424 18.3126C8.73003 18.4245 9.34761 18.4904 10.182 18.497V19.0897C7.98105 19.037 6.33855 19.0106 5.26108 19.0106C4.74862 19.0106 3.33607 19.037 1.02344 19.0897V18.5496C1.61474 18.5233 2.04835 18.4509 2.32429 18.3389C2.59366 18.227 2.78419 18.0162 2.88274 17.7067C2.98129 17.3972 3.03385 16.9099 3.03385 16.2316V2.87628C3.03385 2.20456 2.98129 1.71066 2.88274 1.40114C2.78419 1.09821 2.60023 0.887474 2.33086 0.775521C2.05492 0.656983 1.62788 0.591129 1.03001 0.564787V0.0247803C1.9301 0.0774639 3.29008 0.103806 5.10997 0.103806C5.8261 0.103806 6.62106 0.0972202 7.49487 0.0774639C8.36868 0.0577075 8.97969 0.0511221 9.31476 0.0511221C10.9375 0.0511221 12.3107 0.275027 13.4276 0.716252C14.5445 1.15748 15.3788 1.77651 15.9307 2.57335C16.4826 3.37019 16.7651 4.29874 16.7651 5.35899C16.7651 6.34023 16.5155 7.28853 16.0161 8.19732C15.5168 9.10611 14.6693 9.86344 13.4736 10.4693C12.2778 11.0752 10.6945 11.3781 8.72346 11.3781H7.30434V16.0735H7.31091ZM11.4829 9.44197C12.0347 8.50684 12.3107 7.24243 12.3107 5.64875C12.3107 3.90361 12.0544 2.61945 11.5354 1.79627C11.023 0.973085 10.1689 0.558202 8.97969 0.558202C8.50008 0.558202 8.1453 0.624056 7.90878 0.74918C7.67883 0.874303 7.52115 1.09821 7.43574 1.4209C7.35033 1.74358 7.31091 2.22432 7.31091 2.87628V10.8447H8.46723C9.92576 10.8447 10.931 10.3771 11.4829 9.44197Z" fill="#1F1F1F"/>
<path d="M32.8359 15.002C32.8359 16.6484 32.895 18.0116 33.0199 19.0916C31.8044 19.0389 29.7546 19.0126 26.8704 19.0126C22.9678 19.0126 20.0573 19.0389 18.1257 19.0916V18.5516C18.717 18.5253 19.1506 18.4528 19.4266 18.3409C19.6959 18.2289 19.8865 18.0182 19.985 17.7087C20.0836 17.3991 20.1361 16.9118 20.1361 16.2335V2.87823C20.1361 2.20652 20.0836 1.71261 19.985 1.40309C19.8865 1.09358 19.6959 0.882842 19.4266 0.770889C19.1441 0.658937 18.7104 0.593082 18.1191 0.56674V0.0267334C20.0507 0.079417 22.9678 0.105759 26.8638 0.105759C29.4983 0.105759 31.3642 0.079417 32.4745 0.0267334C32.3497 1.50846 32.2906 2.83213 32.2906 4.01093C32.2906 4.80777 32.3169 5.42022 32.3694 5.8351H31.7519C31.5679 4.53118 31.2854 3.49727 30.9109 2.74652C30.5364 1.99578 30.0568 1.45578 29.4786 1.13309C28.9005 0.810402 28.1909 0.645766 27.3434 0.645766H26.2396C25.6812 0.645766 25.2738 0.691864 25.0242 0.78406C24.7745 0.876256 24.6037 1.05406 24.5183 1.3109C24.4329 1.56773 24.3869 1.9892 24.3869 2.56872V9.23319H25.241C26.2002 9.23319 26.9295 8.88416 27.4157 8.17952C27.9084 7.48146 28.2435 6.64511 28.4406 5.68363H29.0582C28.999 6.56608 28.9662 7.41561 28.9662 8.21903L28.9793 9.50978C28.9793 10.4186 29.0319 11.6961 29.137 13.3359H28.5194C28.1581 10.9586 27.0675 9.7732 25.241 9.7732H24.3869V16.5562C24.3869 17.1357 24.4329 17.5506 24.5183 17.814C24.6037 18.0709 24.7745 18.2487 25.0242 18.3409C25.2738 18.4331 25.6746 18.4792 26.2396 18.4792H27.5668C28.8282 18.4792 29.8466 18.0379 30.6284 17.1621C31.4102 16.2862 31.9621 14.8111 32.2906 12.7432H32.9082C32.8622 13.3228 32.8359 14.0801 32.8359 15.002Z" fill="#1F1F1F"/>
<path d="M51.5404 1.02114C51.2644 1.24504 51.0739 1.58748 50.9753 2.04847C50.8768 2.50945 50.8242 3.20092 50.8242 4.1163V19.1443C50.6928 19.1377 50.476 19.1311 50.1672 19.1311C49.8519 19.1311 49.6088 19.1377 49.4445 19.1443L37.7894 4.3402V14.6728C37.7894 15.733 37.8485 16.5101 37.9602 17.004C38.0719 17.4979 38.3084 17.8601 38.6632 18.0906C39.018 18.3211 39.5961 18.4726 40.3977 18.5516V19.0916C39.7078 19.0389 38.742 19.0126 37.5003 19.0126C36.5148 19.0126 35.733 19.0389 35.168 19.0916V18.5516C35.7527 18.4726 36.1863 18.3211 36.4623 18.0972C36.7382 17.8733 36.9287 17.5309 37.0273 17.0699C37.1258 16.6089 37.1784 15.9174 37.1784 15.002V2.87823C37.1784 2.20652 37.1258 1.71261 37.0273 1.40309C36.9287 1.09358 36.7382 0.882842 36.4688 0.770889C36.1929 0.658937 35.7593 0.593082 35.168 0.56674V0.0267334C35.7396 0.079417 36.5148 0.105759 37.5003 0.105759C38.4004 0.105759 39.1691 0.079417 39.8064 0.0267334L50.2067 12.8684V4.44557C50.2067 3.38531 50.1475 2.60823 50.0358 2.11432C49.9242 1.62041 49.6876 1.25821 49.3329 1.02772C48.9781 0.797231 48.3999 0.645766 47.5984 0.56674V0.0267334C48.2882 0.079417 49.254 0.105759 50.4957 0.105759C51.4944 0.105759 52.2696 0.079417 52.8281 0.0267334V0.56674C52.2434 0.645766 51.8163 0.797231 51.5404 1.02114Z" fill="#1F1F1F"/>
<path d="M70.9349 1.02114C70.659 1.24504 70.4684 1.58748 70.3699 2.04847C70.2713 2.50945 70.2188 3.20092 70.2188 4.1163V19.1443C70.0874 19.1377 69.8706 19.1311 69.5618 19.1311C69.2464 19.1311 69.0033 19.1377 68.8391 19.1443L57.1839 4.3402V14.6728C57.1839 15.733 57.2431 16.5101 57.3547 17.004C57.4664 17.4979 57.703 17.8601 58.0577 18.0906C58.4125 18.3211 58.9907 18.4726 59.7922 18.5516V19.0916C59.1024 19.0389 58.1366 19.0126 56.8948 19.0126C55.9093 19.0126 55.1275 19.0389 54.5625 19.0916V18.5516C55.1472 18.4726 55.5808 18.3211 55.8568 18.0972C56.1327 17.8733 56.3233 17.5309 56.4218 17.0699C56.5204 16.6089 56.5729 15.9174 56.5729 15.002V2.87823C56.5729 2.20652 56.5204 1.71261 56.4218 1.40309C56.3233 1.09358 56.1327 0.882842 55.8634 0.770889C55.5874 0.658937 55.1538 0.593082 54.5625 0.56674V0.0267334C55.1275 0.079417 55.9093 0.105759 56.8948 0.105759C57.7949 0.105759 58.5636 0.079417 59.2009 0.0267334L69.6012 12.8684V4.44557C69.6012 3.38531 69.5421 2.60823 69.4304 2.11432C69.3187 1.62041 69.0822 1.25821 68.7274 1.02772C68.3726 0.797231 67.7944 0.645766 66.9929 0.56674V0.0267334C67.6828 0.079417 68.6485 0.105759 69.8903 0.105759C70.8889 0.105759 71.6642 0.079417 72.2226 0.0267334V0.56674C71.6445 0.645766 71.2108 0.797231 70.9349 1.02114Z" fill="#1F1F1F"/>
<path d="M87.5566 0.0787812C88.3779 0.0787812 89.0611 0.0524394 89.5999 -0.000244141V0.539763C89.186 0.71757 88.7786 1.04684 88.3581 1.53417C87.9442 2.02149 87.4975 2.72613 87.0113 3.65468L83.838 9.95037V16.2329C83.838 16.9112 83.8906 17.3985 83.9891 17.708C84.0877 18.0175 84.2782 18.2217 84.5476 18.3402C84.8169 18.4522 85.2571 18.5246 85.8616 18.551V19.091C84.8892 19.0383 83.5161 19.0119 81.729 19.0119C79.8172 19.0119 78.4243 19.0383 77.5571 19.091V18.551C78.1484 18.5246 78.5886 18.4522 78.8645 18.3402C79.1405 18.2283 79.331 18.0175 79.4295 17.708C79.5281 17.3985 79.5806 16.9112 79.5806 16.2329V11.6823L74.3904 2.07417C73.8385 1.0666 73.326 0.559519 72.8398 0.559519V-0.000244141C73.6151 0.0853667 74.6729 0.131465 76 0.131465C77.6819 0.131465 79.3638 0.0853667 81.0458 -0.000244141V0.566104C80.415 0.566104 79.9223 0.618788 79.5544 0.730741C79.193 0.842693 79.0091 1.04684 79.0091 1.35636C79.0091 1.54075 79.0682 1.7449 79.193 1.96222L83.2861 9.85159L85.3688 5.65666C86.0784 4.2342 86.4331 3.12784 86.4331 2.331C86.4331 1.72514 86.2426 1.28392 85.855 1.00074C85.4673 0.71757 84.9155 0.566104 84.1928 0.539763V-0.000244141C85.4082 0.0524394 86.5251 0.0787812 87.5566 0.0787812Z" fill="#1F1F1F"/>
<path d="M118.758 0.105637C119.606 0.105637 120.295 0.0792949 120.828 0.0266113V0.566618C119.776 0.968331 118.995 2.04176 118.469 3.77373L113.732 19.1376C113.541 19.1178 113.226 19.1112 112.786 19.1112C112.359 19.1112 112.05 19.1178 111.853 19.1376L107.891 7.1389L103.93 19.1376C103.726 19.1178 103.411 19.1112 102.983 19.1112C102.556 19.1112 102.241 19.1178 102.037 19.1376L96.0193 2.28542C95.8156 1.69932 95.5594 1.27126 95.2506 0.994672C94.9418 0.724669 94.633 0.579789 94.3242 0.560033V0.0266113C95.4017 0.0792949 96.7354 0.105637 98.3385 0.105637C99.843 0.105637 100.94 0.0792949 101.63 0.0266113V0.566618C101.006 0.645644 100.697 0.994672 100.697 1.62029C100.697 1.95615 100.776 2.35786 100.934 2.83201L104.856 14.1919L107.582 6.19718L106.203 2.02859C106.025 1.50175 105.815 1.13297 105.572 0.922233C105.329 0.711498 105.04 0.59296 104.718 0.566618V0.0266113C105.717 0.0792949 106.998 0.105637 108.561 0.105637C110.302 0.105637 111.59 0.0792949 112.431 0.0266113V0.566618C111.774 0.586375 111.308 0.658815 111.025 0.790524C110.743 0.922233 110.605 1.17907 110.605 1.56761C110.605 1.85737 110.69 2.27884 110.867 2.83201L114.54 14.0997L117.096 5.9601C117.497 4.64301 117.7 3.59593 117.7 2.81884C117.7 2.04176 117.51 1.47541 117.129 1.13297C116.748 0.783938 116.176 0.599545 115.407 0.573204V0.0266113C116.629 0.0792949 117.74 0.105637 118.758 0.105637Z" fill="#1F1F1F"/>
<path d="M124.329 15.8701C124.743 16.2454 124.946 16.7459 124.946 17.3913C124.946 18.0301 124.743 18.5372 124.329 18.9125C123.915 19.2879 123.357 19.4723 122.654 19.4723C121.957 19.4723 121.399 19.2879 120.985 18.9125C120.571 18.5372 120.367 18.0367 120.367 17.3913C120.367 16.7525 120.571 16.2454 120.985 15.8701C121.392 15.4947 121.951 15.3103 122.654 15.3103C123.357 15.3103 123.922 15.5013 124.329 15.8701Z" fill="#1F1F1F"/>
</svg>
