<svg width="20" height="17" viewBox="0 0 20 17" fill="none" xmlns="http://www.w3.org/2000/svg">
<path d="M17.2268 4.68707C17.239 4.85762 17.239 5.02821 17.239 5.19876C17.239 10.4008 13.2796 16.3947 6.04303 16.3947C3.81357 16.3947 1.74251 15.749 0.000366211 14.6282C0.31713 14.6648 0.621669 14.677 0.95062 14.677C2.79019 14.677 4.48362 14.0557 5.83591 12.9958C4.10596 12.9592 2.6562 11.8262 2.1567 10.2668C2.40038 10.3033 2.64401 10.3277 2.89988 10.3277C3.25317 10.3277 3.60649 10.2789 3.93541 10.1937C2.13236 9.82819 0.780032 8.24445 0.780032 6.33175V6.28304C1.30387 6.57543 1.91306 6.75817 2.5587 6.7825C1.4988 6.07589 0.804407 4.86981 0.804407 3.50533C0.804407 2.77438 0.999295 2.10432 1.34043 1.51955C3.2775 3.90737 6.1892 5.46674 9.45415 5.63732C9.39325 5.34494 9.35669 5.0404 9.35669 4.73582C9.35669 2.56726 11.111 0.800781 13.2917 0.800781C14.4247 0.800781 15.4481 1.27591 16.1669 2.04342C17.0562 1.87287 17.909 1.54392 18.6643 1.09317C18.3719 2.0069 17.7506 2.77441 16.9344 3.26169C17.7263 3.17645 18.4938 2.95711 19.2004 2.65258C18.6644 3.43224 17.9943 4.12663 17.2268 4.68707Z" fill="#1F1F1F"/>
</svg>
