<svg width="14" height="14" viewBox="0 0 14 14" fill="none" xmlns="http://www.w3.org/2000/svg">
<path fill-rule="evenodd" clip-rule="evenodd" d="M3.75962 8.16559L1.64711 6.41682C1.24839 6.09796 1.42326 5.45674 1.92924 5.38446L4.92547 5.25097L6.20499 2.04313C6.29418 1.86534 6.47547 1.75342 6.67425 1.75342C6.87302 1.75342 7.05431 1.86592 7.1435 2.04313L8.42302 5.25097L11.4192 5.38446C11.9252 5.45674 12.1001 6.09796 11.7014 6.41682L9.58887 8.16559L10.1654 11.5798C10.2318 12.0455 9.74801 12.3941 9.32772 12.1837L6.67425 10.4973L4.02077 12.1831C3.5999 12.3935 3.11666 12.045 3.18311 11.5792L3.75962 8.16559Z" fill="#ECB018"/>
</svg>
