<svg width="73" height="72" viewBox="0 0 73 72" fill="none" xmlns="http://www.w3.org/2000/svg">
<path d="M71.8772 40.0915C71.4749 38.6343 71.0962 37.2569 71.0962 36C71.0962 34.7431 71.4749 33.3657 71.8772 31.9085C72.5173 29.5889 73.1778 27.1894 72.3874 24.8572C71.5673 22.4311 69.5233 20.8456 67.5466 19.3148C66.3618 18.396 65.2427 17.5289 64.5165 16.5741C63.7778 15.6005 63.2551 14.3014 62.7041 12.9256C61.7948 10.6654 60.8558 8.32696 58.7523 6.85878C56.6832 5.41252 54.1008 5.27322 51.6076 5.14017C50.0519 5.05722 48.5807 4.97739 47.349 4.59391C46.1971 4.23548 45.0045 3.492 43.743 2.7047C41.7131 1.43687 39.4109 0 36.7486 0C34.0864 0 31.7842 1.43687 29.7542 2.70626C28.4928 3.49357 27.3033 4.23861 26.1498 4.59548C24.9165 4.97896 23.4453 5.05878 21.8896 5.14174C19.3949 5.27635 16.8156 5.41409 14.745 6.86035C12.6415 8.32852 11.7024 10.6654 10.7931 12.9256C10.2391 14.3014 9.71633 15.6021 8.9776 16.5757C8.2514 17.5336 7.13236 18.4007 5.94758 19.321C3.97243 20.8534 1.93155 22.4358 1.11144 24.8588C0.321068 27.1925 0.981538 29.5904 1.6201 31.9116C2.02233 33.3689 2.40108 34.7447 2.40108 36.0016C2.40108 37.2584 2.02233 38.6358 1.6201 40.093C0.981538 42.4127 0.321068 44.8122 1.11144 47.1475C1.93155 49.5704 3.974 51.156 5.94915 52.6868C7.13392 53.604 8.25296 54.4727 8.9776 55.4275C9.71789 56.401 10.2406 57.7002 10.7931 59.0776C11.7024 61.3377 12.6431 63.6762 14.7481 65.1475C16.8156 66.5906 19.3964 66.7283 21.8896 66.8614C23.4453 66.9443 24.9165 67.0242 26.1483 67.4076C27.3002 67.7661 28.4912 68.5096 29.7511 69.2953C31.7826 70.5616 34.0848 72 36.7486 72C39.4124 72 41.7162 70.5616 43.7493 69.2937C45.0092 68.508 46.1987 67.7645 47.3521 67.4061C48.5839 67.0226 50.0551 66.9428 51.6108 66.8598C54.1055 66.7268 56.6848 66.589 58.7523 65.1459C60.8605 63.6746 61.7995 61.333 62.7088 59.0713C63.2613 57.697 63.7825 56.3979 64.5181 55.4275C65.2443 54.4727 66.3633 53.604 67.5481 52.6868C69.5248 51.1544 71.5673 49.5704 72.3889 47.1459C73.1793 44.8106 72.5173 42.4127 71.8772 40.0915ZM69.4229 46.1426C68.9049 47.6734 67.3132 48.9068 65.6291 50.2122C64.3379 51.2139 63.0013 52.2501 62.0247 53.5336C61.034 54.8421 60.408 56.3979 59.8023 57.9052C59.0307 59.8273 58.3013 61.6414 56.9601 62.5774C55.6235 63.5103 53.5935 63.6183 51.4431 63.7325C49.7638 63.8217 48.0249 63.9141 46.4192 64.415C44.8838 64.8955 43.4627 65.7798 42.0901 66.6376C40.2511 67.7864 38.5154 68.8696 36.7484 68.8696C34.9814 68.8696 33.2473 67.7864 31.4083 66.6376C30.0373 65.7814 28.6178 64.8955 27.0809 64.415C25.4751 63.9156 23.7362 63.8217 22.0569 63.7325C19.9065 63.6183 17.875 63.5087 16.5399 62.5774C15.2002 61.6414 14.4693 59.8273 13.6977 57.9068C13.092 56.3995 12.4644 54.8421 11.4722 53.5336C10.4971 52.2501 9.16052 51.2139 7.86776 50.2106C6.18528 48.9052 4.59514 47.6734 4.0771 46.1426C3.59348 44.7167 4.10214 42.8729 4.63897 40.9226C5.07719 39.3276 5.53107 37.681 5.53107 35.9984C5.53107 34.3158 5.07719 32.6708 4.63897 31.0758C4.10057 29.1256 3.59348 27.2833 4.0771 25.8574C4.59514 24.3266 6.18372 23.0948 7.86619 21.7894C9.15896 20.7861 10.4971 19.7483 11.4706 18.4633C12.466 17.1548 13.092 15.5958 13.6993 14.0885C14.4693 12.168 15.1987 10.3555 16.5368 9.42261C17.8734 8.48817 19.9065 8.38017 22.0585 8.26591C23.7362 8.17513 25.4751 8.08278 27.0793 7.58191C28.6178 7.10296 30.0389 6.21548 31.413 5.35774C33.2489 4.21357 34.983 3.13043 36.7484 3.13043C38.5139 3.13043 40.2495 4.21357 42.087 5.36087C43.4611 6.22017 44.8807 7.10609 46.4192 7.58504C48.0234 8.08435 49.7606 8.1767 51.44 8.26748C53.592 8.38174 55.6235 8.49287 56.9601 9.42574C58.2998 10.3617 59.0291 12.1743 59.7991 14.0917C60.4064 15.6005 61.0309 17.1579 62.0263 18.4664C63.0013 19.7499 64.3379 20.7861 65.6291 21.7878C67.3132 23.0948 68.9049 24.3282 69.4229 25.8621C69.9065 27.2849 69.3963 29.1271 68.8595 31.0774C68.4197 32.6723 67.9658 34.319 67.9658 36.0016C67.9658 37.6842 68.4181 39.3308 68.8595 40.9242C69.3981 42.8744 69.9065 44.7167 69.4229 46.1426Z" fill="#1F1F1F"/>
<path d="M36.7479 12.5215C23.803 12.5215 13.2715 23.0538 13.2715 35.9998C13.2715 48.9457 23.803 59.478 36.7479 59.478C49.6928 59.478 60.2243 48.9457 60.2243 35.9998C60.2243 23.0538 49.6928 12.5215 36.7479 12.5215ZM36.7479 56.3476C25.5293 56.3476 16.4017 47.2192 16.4017 35.9998C16.4017 24.7803 25.5293 15.6519 36.7479 15.6519C42.534 15.6519 47.7505 18.0921 51.4598 21.9832L36.5444 42.9744L28.4639 34.8931C27.8519 34.2811 26.8628 34.2811 26.2508 34.8931C25.6389 35.5051 25.6389 36.4944 26.2508 37.1064L35.6414 46.4977C35.9356 46.7935 36.3347 46.9563 36.7479 46.9563C36.7902 46.9563 36.8355 46.9547 36.8794 46.95C37.3379 46.9124 37.7574 46.673 38.0234 46.2973L53.5132 24.497C55.7669 27.7714 57.0941 31.7314 57.0941 35.9998C57.0941 47.2192 47.9665 56.3476 36.7479 56.3476Z" fill="#1F1F1F"/>
</svg>
