<svg width="41" height="40" viewBox="0 0 41 40" fill="none" xmlns="http://www.w3.org/2000/svg">
<g clip-path="url(#clip0_3_376)">
<path d="M7.56396 24.4932C7.53161 24.4932 7.59693 24.4973 7.56396 24.4932V24.4932Z" fill="#1F1F1F"/>
<path d="M38.9812 35.3163C36.2717 35.3163 33.6 35.0154 31.0077 34.4376C31.3557 33.4693 31.5426 32.4364 31.5531 31.3743C31.5771 28.9488 30.6761 26.6851 29.0163 25.0005C27.915 23.8827 26.5391 23.0689 25.0375 22.6473C25.0244 22.6437 25.0115 22.6404 24.9984 22.6374C21.2072 21.5767 17.7802 19.7194 14.8126 17.1167C14.4881 16.8322 13.9945 16.8645 13.71 17.1889C13.4255 17.5133 13.4578 18.007 13.7822 18.2915C14.8637 19.2399 16.0027 20.0949 17.1951 20.8542C17.9014 22.2192 18.2499 23.748 18.2034 25.2928C18.1905 25.7241 18.5296 26.0842 18.9609 26.0972C18.9689 26.0974 18.9769 26.0975 18.9848 26.0975C19.4055 26.0975 19.7526 25.763 19.7654 25.3396C19.7985 24.2392 19.6597 23.1455 19.3606 22.0973C20.6489 22.7608 21.991 23.3221 23.3827 23.7787C24.1859 25.0813 24.648 26.565 24.7213 28.0876C24.7414 28.5058 25.0868 28.8313 25.501 28.8313C25.5137 28.8313 25.5265 28.831 25.5393 28.8304C25.9702 28.8096 26.3028 28.4434 26.282 28.0124C26.2231 26.7865 25.9483 25.5826 25.4783 24.4541C26.3817 24.8341 27.2084 25.392 27.9031 26.0971C30.006 28.2314 30.5283 31.3817 29.4851 34.0641C21.2043 31.8432 13.8428 26.7595 8.82592 19.5561C8.57926 19.202 8.09242 19.1149 7.73826 19.3614C7.38417 19.608 7.29705 20.095 7.54363 20.4491C11.0017 25.4144 15.6455 29.5426 20.9729 32.3874C23.44 33.7047 26.053 34.7427 28.7508 35.4881C28.4854 35.8912 28.1788 36.2748 27.8294 36.6315C26.1952 38.1921 23.7427 38.8143 21.5773 38.2166C19.0322 37.5142 16.6114 36.4143 14.4054 34.9711C15.1266 34.8991 15.8414 34.7533 16.5452 34.5303C16.9566 34.4 17.1844 33.9609 17.0541 33.5495C16.9238 33.1382 16.485 32.9105 16.0734 33.0406C14.8261 33.4357 13.5389 33.5527 12.2442 33.3902C11.5696 32.8408 10.9211 32.2565 10.303 31.6384C8.01882 29.3543 6.24166 26.704 4.99281 23.8528C5.79803 24.167 6.68958 24.384 7.56316 24.4934C7.95132 24.4934 8.33697 24.2074 8.38643 23.8122C8.44011 23.384 8.13649 22.9934 7.70825 22.9398C6.44167 22.7812 5.25127 22.3663 4.16485 21.7064C2.17454 15.7704 2.36385 9.17963 4.92702 3.28557C5.67763 6.73225 7.08453 10.0321 9.05641 12.9427C9.29846 13.2998 9.78412 13.3933 10.1415 13.1513C10.4987 12.9092 10.5922 12.4235 10.3501 12.0662C8.0607 8.68701 6.57848 4.75108 6.06391 0.684278C6.02148 0.348705 5.76787 0.0785273 5.43558 0.0150067C5.10344 -0.0487483 4.76795 0.108842 4.60457 0.405115C3.19743 2.95649 2.21587 5.70858 1.687 8.58474C1.16587 11.4189 1.09633 14.305 1.48027 17.1627C2.27869 23.1052 4.94749 28.493 9.19806 32.7437C12.5211 36.0667 16.658 38.48 21.1616 39.7231C21.8397 39.9102 22.5402 40.001 23.2414 40.001C25.3132 40.001 27.3898 39.2083 28.9016 37.7682C28.9104 37.7601 28.9194 37.753 28.928 37.7445C28.9356 37.7371 28.9419 37.7292 28.9491 37.7216C29.4919 37.1668 29.9558 36.5515 30.3354 35.8906C33.1613 36.5436 36.0657 36.8791 38.9812 36.8791C39.4128 36.8791 39.7626 36.5293 39.7626 36.0977C39.7626 35.6662 39.4127 35.3163 38.9812 35.3163Z" fill="#1F1F1F"/>
<path d="M11.8614 16.0607C12.0669 16.0607 12.2685 15.9771 12.4138 15.8317C12.5591 15.6864 12.6427 15.4848 12.6427 15.2794C12.6427 15.0739 12.5591 14.8723 12.4138 14.727C12.2685 14.5816 12.0669 14.498 11.8614 14.498C11.6559 14.498 11.4543 14.5816 11.309 14.727C11.1637 14.8723 11.0801 15.0739 11.0801 15.2794C11.0801 15.4856 11.1637 15.6864 11.309 15.8317C11.4543 15.9771 11.6559 16.0607 11.8614 16.0607Z" fill="#1F1F1F"/>
</g>
<defs>
<clipPath id="clip0_3_376">
<rect width="40" height="40" fill="white" transform="translate(0.5)"/>
</clipPath>
</defs>
</svg>
