<svg width="81" height="80" viewBox="0 0 81 80" fill="none" xmlns="http://www.w3.org/2000/svg">
<path d="M53.5842 63.7032H8.6242C6.45828 63.7032 4.69531 61.9402 4.69531 59.7743V23.7032C4.69531 22.8854 5.35902 22.2217 6.17679 22.2217H62.4731C63.2909 22.2217 63.9546 22.8854 63.9546 23.7032V35.555C63.9546 36.3728 63.2909 37.0365 62.4731 37.0365C61.6553 37.0365 60.9916 36.3728 60.9916 35.555V25.1846H7.65828V59.7743C7.65828 60.3076 8.09087 60.7402 8.6242 60.7402H53.5842C54.402 60.7402 55.0657 61.4039 55.0657 62.2217C55.0657 63.0395 54.402 63.7032 53.5842 63.7032Z" fill="#1F1F1F"/>
<path d="M62.4731 25.1851C61.9516 25.1851 61.4449 24.9095 61.1753 24.4177L52.2272 8.17471C51.9694 7.70063 51.4716 7.4073 50.9294 7.4073H17.7205C17.1783 7.4073 16.6805 7.70063 16.4227 8.17471L7.47457 24.4177C7.08049 25.1377 6.17383 25.3895 5.46272 25.0014C4.74568 24.6073 4.48494 23.7036 4.87901 22.9895L13.8272 6.74656C14.6064 5.32434 16.0998 4.44434 17.7205 4.44434H50.9323C52.5531 4.44434 54.0464 5.32434 54.8257 6.7436L63.7709 22.9866C64.1679 23.7036 63.9072 24.6043 63.1901 24.9984C62.962 25.1258 62.7161 25.1851 62.4731 25.1851Z" fill="#1F1F1F"/>
<path d="M34.327 25.1851C33.5093 25.1851 32.8456 24.5214 32.8456 23.7036V5.92582C32.8456 5.10804 33.5093 4.44434 34.327 4.44434C35.1448 4.44434 35.8085 5.10804 35.8085 5.92582V23.7036C35.8085 24.5214 35.1448 25.1851 34.327 25.1851Z" fill="#1F1F1F"/>
<path d="M74.3258 75.5553C73.508 75.5553 72.8443 74.8916 72.8443 74.0739V68.1479C72.8443 59.1613 65.5317 51.8516 56.548 51.8516H50.6221C49.8043 51.8516 49.1406 51.1879 49.1406 50.3702C49.1406 49.5524 49.8043 48.8887 50.6221 48.8887H56.548C67.1673 48.8887 75.8073 57.5287 75.8073 68.1479V74.0739C75.8073 74.8916 75.1436 75.5553 74.3258 75.5553Z" fill="#1F1F1F"/>
<path d="M60.9925 60.7406C60.6517 60.7406 60.308 60.6221 60.0295 60.3821L49.6591 51.4932C49.3273 51.2147 49.1406 50.8029 49.1406 50.3703C49.1406 49.9377 49.3273 49.5258 49.6591 49.2473L60.0295 40.3584C60.6488 39.828 61.5791 39.8962 62.1184 40.5184C62.6517 41.1377 62.5777 42.074 61.9554 42.6073L52.9006 50.3703L61.9584 58.1362C62.5806 58.6695 62.6517 59.6029 62.1214 60.2251C61.8221 60.5658 61.4103 60.7406 60.9925 60.7406Z" fill="#1F1F1F"/>
</svg>
