<svg width="41" height="40" viewBox="0 0 41 40" fill="none" xmlns="http://www.w3.org/2000/svg">
<g clip-path="url(#clip0_3_361)">
<path d="M37.6518 18.0481C38.8118 14.7154 37.9813 11.0216 35.4616 8.50195C33.6801 6.72038 31.2691 5.75663 28.7675 5.80429C28.544 5.18491 28.2513 4.58968 27.8903 4.03015C26.9998 2.64968 25.7462 1.54835 24.2652 0.845221C23.8755 0.660221 23.4095 0.826158 23.2245 1.21592C23.0394 1.60569 23.2054 2.07171 23.5952 2.25678C26.1049 3.44827 27.7266 6.01226 27.7266 8.78898C27.7266 9.22046 28.0763 9.57023 28.5078 9.57023C28.9393 9.57023 29.2891 9.22046 29.2891 8.78898C29.2891 8.30999 29.2491 7.83515 29.173 7.36804C31.1149 7.42562 32.9668 8.21679 34.3568 9.60679C36.3125 11.5625 37.0428 14.3698 36.3441 16.9883C34.8545 15.9879 33.0633 15.4035 31.138 15.4035C30.7066 15.4035 30.3568 15.7533 30.3568 16.1848C30.3568 16.6162 30.7066 16.966 31.138 16.966C35.4387 16.9661 38.9375 20.4649 38.9375 24.7656C38.9375 29.0662 35.4387 32.565 31.138 32.565C31.0216 32.565 30.9054 32.5615 30.7895 32.5564C32.7641 30.8247 33.9398 28.296 33.9421 25.6174C33.9423 25.3377 33.7931 25.0794 33.5509 24.9398C31.0589 23.5038 28.0401 23.3256 25.42 24.4048C25.0445 21.5963 23.3808 19.0711 20.8913 17.6309C20.6492 17.4909 20.3509 17.4909 20.1088 17.6309C17.6193 19.071 15.9556 21.5963 15.5802 24.4048C12.9602 23.3257 9.94148 23.5039 7.44945 24.9398C7.20719 25.0795 7.05805 25.3378 7.05828 25.6174C7.06055 28.296 8.23633 30.8247 10.2109 32.5564C10.0948 32.5616 9.97859 32.565 9.86203 32.565C5.56133 32.565 2.0625 29.0662 2.0625 24.7656C2.0625 20.4649 5.56133 16.9661 9.86195 16.9661C10.2934 16.9661 10.6432 16.6163 10.6432 16.1848C10.6432 15.7534 10.2934 15.4036 9.86195 15.4036C7.93672 15.4036 6.14547 15.988 4.65594 16.9884C3.95711 14.3699 4.6875 11.5625 6.6432 9.60687C8.0332 8.21679 9.88469 7.42569 11.827 7.36812C11.7509 7.83523 11.7109 8.30999 11.7109 8.78905C11.7109 9.22054 12.0607 9.57031 12.4922 9.57031C12.9237 9.57031 13.2734 9.22054 13.2734 8.78905C13.2734 6.01233 14.8951 3.44835 17.4048 2.25678C17.7946 2.07171 17.9605 1.60577 17.7755 1.21592C17.5905 0.826158 17.1245 0.660143 16.7348 0.845221C15.2537 1.54835 14.0002 2.64968 13.1097 4.03015C12.7488 4.58968 12.456 5.18491 12.2326 5.80421C9.73094 5.7564 7.32 6.72046 5.53844 8.50202C3.01883 11.0216 2.18828 14.7155 3.34828 18.0481C1.59281 19.7508 0.5 22.1327 0.5 24.7656C0.5 29.9278 4.69977 34.1275 9.86195 34.1275C10.6302 34.1275 11.392 34.0343 12.1311 33.8503C13.4316 34.5048 14.8548 34.8331 16.2791 34.8331C16.8026 34.8331 17.3261 34.7879 17.8437 34.6995V39.2187C17.8437 39.6502 18.1934 39.9999 18.6249 39.9999H22.3749C22.8064 39.9999 23.1562 39.6502 23.1562 39.2187V34.6994C23.6738 34.7878 24.1974 34.833 24.7211 34.833C26.1451 34.833 27.5686 34.5048 28.869 33.8503C29.608 34.0343 30.3697 34.1275 31.138 34.1275C36.3002 34.1275 40.5 29.9278 40.5 24.7656C40.5 22.1327 39.4072 19.7508 37.6518 18.0481ZM20.5 19.2259C22.5135 20.5589 23.7899 22.7811 23.9255 25.1902C22.3984 26.1812 21.2168 27.5958 20.5002 29.2274C19.7834 27.5957 18.6017 26.181 17.0745 25.1901C17.2102 22.7809 18.4866 20.5588 20.5 19.2259ZM12.4507 32.2492C10.2237 30.9634 8.79141 28.6281 8.635 26.0761C10.9233 24.9358 13.662 25.0084 15.8889 26.2941C18.1159 27.5799 19.5482 29.9152 19.7046 32.4672C17.4163 33.6074 14.6776 33.5348 12.4507 32.2492ZM21.5938 38.4374H19.4062V34.289C19.7786 34.1554 20.144 33.9971 20.5002 33.8142C20.8562 33.997 21.2215 34.1553 21.5938 34.2888V38.4374ZM21.2957 32.4671C21.4523 29.9153 22.8845 27.5797 25.1114 26.294C27.3384 25.0082 30.077 24.9356 32.3653 26.076C32.2089 28.6281 30.7766 30.9634 28.5496 32.2492C26.3226 33.5349 23.5839 33.6077 21.2957 32.4671Z" fill="#1F1F1F"/>
<path d="M20.5 1.5625C20.7055 1.5625 20.907 1.47891 21.0523 1.33359C21.1977 1.18828 21.2812 0.986719 21.2812 0.78125C21.2812 0.575781 21.1977 0.374219 21.0523 0.228906C20.907 0.0835938 20.7055 0 20.5 0C20.2945 0 20.093 0.0835938 19.9477 0.228906C19.8023 0.374219 19.7188 0.575781 19.7188 0.78125C19.7188 0.986719 19.8023 1.18828 19.9477 1.33359C20.093 1.47891 20.2945 1.5625 20.5 1.5625Z" fill="#1F1F1F"/>
</g>
<defs>
<clipPath id="clip0_3_361">
<rect width="40" height="40" fill="white" transform="translate(0.5)"/>
</clipPath>
</defs>
</svg>
