<svg width="20" height="15" viewBox="0 0 20 15" fill="none" xmlns="http://www.w3.org/2000/svg">
<path d="M18.7992 2.91307C18.5783 2.08163 17.9277 1.42681 17.1017 1.20459C15.6044 0.800781 9.60037 0.800781 9.60037 0.800781C9.60037 0.800781 3.59639 0.800781 2.09905 1.20459C1.27299 1.42684 0.622385 2.08163 0.401569 2.91307C0.000366211 4.42011 0.000366211 7.56441 0.000366211 7.56441C0.000366211 7.56441 0.000366211 10.7087 0.401569 12.2158C0.622385 13.0472 1.27299 13.6747 2.09905 13.897C3.59639 14.3008 9.60037 14.3008 9.60037 14.3008C9.60037 14.3008 15.6043 14.3008 17.1017 13.897C17.9277 13.6747 18.5783 13.0472 18.7992 12.2158C19.2004 10.7087 19.2004 7.56441 19.2004 7.56441C19.2004 7.56441 19.2004 4.42011 18.7992 2.91307ZM7.63672 10.4192V4.70962L12.6549 7.56448L7.63672 10.4192Z" fill="#1F1F1F"/>
</svg>
